<svg width="8" height="15" viewBox="0 0 8 15" fill="none" xmlns="http://www.w3.org/2000/svg">
<mask id="mask0_1_748" style="mask-type:alpha" maskUnits="userSpaceOnUse" x="0" y="0" width="8" height="15">
<path fill-rule="evenodd" clip-rule="evenodd" d="M0 0.000976562H7.413V14.1998H0V0.000976562Z" fill="white"/>
</mask>
<g mask="url(#mask0_1_748)">
<path fill-rule="evenodd" clip-rule="evenodd" d="M5.912 2.39642C6.352 2.38142 6.791 2.39342 7.233 2.39242H7.414V0.104421C7.179 0.0804213 6.933 0.0464213 6.687 0.0344213C6.236 0.0154213 5.785 -0.00757868 5.332 0.00242132C4.643 0.0174213 3.991 0.185421 3.421 0.593421C2.767 1.06342 2.408 1.72442 2.272 2.50342C2.215 2.82542 2.2 3.15842 2.192 3.48542C2.179 3.99942 2.189 4.51242 2.19 5.02642V5.21942H0V7.77442H2.177V14.1994H4.837V7.78542H7.007C7.119 6.93542 7.227 6.09342 7.341 5.21742C7.166 5.21742 7.01 5.21642 6.853 5.21742C6.236 5.21942 4.82 5.21742 4.82 5.21742C4.82 5.21742 4.826 3.95042 4.841 3.40042C4.862 2.64742 5.309 2.41742 5.912 2.39642Z" fill="#282828"/>
</g>
</svg>
