<svg width="15" height="11" viewBox="0 0 15 11" fill="none" xmlns="http://www.w3.org/2000/svg">
<path fill-rule="evenodd" clip-rule="evenodd" d="M5.53516 7.36023C7.05716 6.57023 8.56716 5.78723 10.0962 4.99523C8.56516 4.19623 7.05616 3.40823 5.53516 2.61523V7.36023ZM1.51139 9.9919C0.956388 9.8099 0.583388 9.4459 0.383388 8.8969C-0.104612 7.5539 -0.248612 1.9389 0.690388 0.833896C1.01239 0.454896 1.42539 0.233896 1.91839 0.180896C4.45039 -0.0911041 12.2774 -0.0531041 13.1804 0.272896C13.7084 0.461896 14.0834 0.807896 14.2874 1.3379C14.8214 2.7249 14.8404 7.7739 14.2174 9.1099C14.0474 9.4729 13.7724 9.7289 13.4224 9.9119C12.4784 10.4069 2.75439 10.4009 1.51139 9.9919Z" fill="#282828"/>
</svg>
