<svg width="199" height="46" viewBox="0 0 199 46" fill="none" xmlns="http://www.w3.org/2000/svg">
<path fill-rule="evenodd" clip-rule="evenodd" d="M113 26.4979L107.339 29.6041L103.576 27.3006C103.576 27.3006 104.356 26.8116 105.237 26.2185C106.119 25.5903 105.746 25.4855 105.271 24.9271C104.356 24.2642 100.356 21.6115 100.356 21.6115L101.644 20.9483L100.457 18.0867L103.271 18.0166L103.339 16.3414C103.339 16.3414 107.712 19.2383 108.39 19.4826C109.101 19.727 109.644 19.3431 109.745 18.3307V11.9788L111.508 12.8166L112.83 10.4083L112.898 10.3035C111.034 8.8378 108.695 8 106.186 8C100.017 8 95 13.1303 95 19.4826C95 25.8694 100.017 31 106.186 31C108.728 31 111.102 30.1278 112.966 28.6271L113 26.4979Z" fill="#004A80"/>
<path fill-rule="evenodd" clip-rule="evenodd" d="M112 15H111.35V25.1959L103.325 20.5L103 21.0469L111.448 26L112 25.5177V15Z" fill="#004A80"/>
<path fill-rule="evenodd" clip-rule="evenodd" d="M28 32H33.0323L37 16H31.968L28 32Z" fill="#004A80"/>
<path fill-rule="evenodd" clip-rule="evenodd" d="M56 32H61.0323L65 16H59.9677L56 32Z" fill="#004A80"/>
<path fill-rule="evenodd" clip-rule="evenodd" d="M83 32H88.0644L92 16H86.9677L83 32Z" fill="#004A80"/>
<path fill-rule="evenodd" clip-rule="evenodd" d="M50.4415 21.4496H55.8813C56.5698 17.8516 54.2633 16 48.9611 16C42.867 16 38.7356 19.039 37.3241 24.2795C36.0501 29.1003 38.5634 32 44.3131 32C50.1662 32 53.609 30.1484 55.0206 26.0613H49.6153C48.8577 27.8775 47.4461 28.821 45.5182 28.821C42.9358 28.821 41.9032 27.1438 42.6951 24.1047C43.5212 20.9257 45.5182 19.179 48.1349 19.179C49.8218 19.179 50.6137 19.9127 50.4415 21.4496Z" fill="#004A80"/>
<path fill-rule="evenodd" clip-rule="evenodd" d="M78.4927 21.4496H83.8703C84.5943 17.8516 82.2846 16 77.0104 16C70.8745 16 66.7035 19.039 65.3245 24.2795C64.049 29.1003 66.5654 32 72.3221 32C78.1478 32 81.5952 30.1484 83.0774 26.0613H77.6309C76.8726 27.8775 75.459 28.821 73.5287 28.821C70.9088 28.821 69.9092 27.1438 70.7367 24.1047C71.5639 20.9257 73.5287 19.179 76.1487 19.179C77.8033 19.179 78.5962 19.9127 78.4927 21.4496Z" fill="#004A80"/>
<path fill-rule="evenodd" clip-rule="evenodd" d="M117 16H118.165L118.471 16.1682L118.808 16H120.126V29.4869C120.126 29.4869 124.356 29.4869 124.938 29.3187C124.693 29.991 124.755 30.6639 125 31H117.03L117 16Z" fill="#004A80"/>
<path fill-rule="evenodd" clip-rule="evenodd" d="M131.466 31.2707C130.866 31.2371 128.666 30.6966 128.566 26.8453C128.699 23.3659 130.5 21.9474 131.466 21.9134C132.1 21.8798 134.233 22.4539 134.233 26.6767C134.233 30.0883 132.4 31.3721 131.466 31.2707ZM131.667 21.0013C130.067 21.0013 126 21.5418 126 26.6426C126 32.6219 131.467 31.9799 131.467 31.9799C133.334 31.9799 136.8 31.4731 137 26.7437C137 20.7651 131.667 21.0013 131.667 21.0013Z" fill="#004A80"/>
<path fill-rule="evenodd" clip-rule="evenodd" d="M162.379 30.1358C161.796 30.0665 159.74 29.5841 159.672 25.9292C159.775 22.6538 161.488 21.3437 162.379 21.3091C162.996 21.2748 165.018 21.8264 165.018 25.791C165.018 28.9632 163.27 30.2047 162.379 30.1358ZM163.682 20.2751C161.455 20.0684 160.153 21.1717 160.153 21.1717V14.0346H159.022L158.679 14.1721L158.302 14L157 14.0346L157.034 30.8257H158.371C158.371 30.8257 158.953 30.343 159.399 29.8602C160.53 31.1014 162.209 30.9979 163.339 30.9979C164.47 30.9979 168 29.8945 168 25.5504C168 21.1717 165.087 20.5165 163.682 20.2751Z" fill="#004A80"/>
<path fill-rule="evenodd" clip-rule="evenodd" d="M194.045 30.543C193.259 30.6101 191.688 29.4351 191.688 26.3132C191.688 22.4529 193.532 21.9492 194.045 21.9492C194.865 21.9829 196.402 23.2918 196.504 26.4808C196.436 30.0059 194.558 30.5093 194.045 30.543ZM197.838 15L197.497 15.1679L197.155 15.034H196.165V21.9828C196.165 21.9828 194.695 20.8077 192.509 21.009C191.075 21.2103 188 22.352 188 26.2794C188 30.5092 190.357 31.8855 192.783 31.9863C193.91 32.0197 195.037 32.0868 196.165 30.8787C196.165 30.8787 196.199 31.5497 196.199 31.785H199V15H197.838Z" fill="#004A80"/>
<path fill-rule="evenodd" clip-rule="evenodd" d="M139 21.2373H139.983L140.288 21.4735L140.559 21.2373H141.441V21.9459C142.186 21.3047 145.678 19.9214 147.678 22.5193C147.678 22.5193 148.492 21.0685 151.508 21.0685C153.407 21.2037 155 22.5528 155 24.4088V31.9664C155 31.9664 153.271 31.5954 152.322 31.9664V25.3197C152.322 23.2279 151.339 22.4183 150.39 22.4183C149.475 22.4857 148.254 23.4302 148.254 25.4546V31.9664C148.254 31.9664 146.525 31.6289 145.746 31.9664V25.421C145.746 25.421 145.983 22.4857 143.848 22.4857C141.915 22.4857 141.712 24.5776 141.712 25.4885V31.9664C141.712 31.9664 139.847 31.7302 139.034 32C139.034 31.6625 139 21.2373 139 21.2373Z" fill="#004A80"/>
<path fill-rule="evenodd" clip-rule="evenodd" d="M182.883 26.7246V31.9659C182.883 31.9659 180.824 31.7261 180 32V21.0727H181.27L181.579 21.3122L181.887 21.0727H182.883V21.9975C183.363 22.1345 183.534 20.6616 187 21.0727C187 21.4835 186.829 23.916 186.829 23.916C186.829 23.916 186.039 24.1555 185.353 23.7787C184.804 23.4705 182.917 24.0185 182.883 26.7246Z" fill="#004A80"/>
<path fill-rule="evenodd" clip-rule="evenodd" d="M174.145 29.4898C173.884 30.1526 172.707 31.0815 171.891 30.7828C171.401 30.6172 170.551 30.1862 170.681 28.4949C170.714 27.8314 171.335 27.1683 174.145 26.5381V29.4898ZM176.823 30.2851V24.4487C176.823 21.2651 174.994 21.2322 172.935 21C170.124 21 169.177 22.0612 168.85 22.3929V23.5201H170.026C170.353 22.9895 170.68 22.5588 171.399 22.1937C172.477 21.7294 173.589 22.5255 174.013 23.3212C174.373 23.9514 174.471 25.5761 173.327 25.7753C169.961 26.1733 168.687 27.0353 168.295 27.8973C166.988 31.5784 170.451 31.9102 170.451 31.9102C171.464 32.1753 173.882 31.8436 174.405 31.0478C174.895 32.1753 177.902 31.8106 178 31.3463V30.8157C177.02 30.8823 176.954 30.7824 176.823 30.2851Z" fill="#004A80"/>
<mask id="mask0_1_689" style="mask-type:alpha" maskUnits="userSpaceOnUse" x="0" y="0" width="29" height="31">
<path fill-rule="evenodd" clip-rule="evenodd" d="M0 0.242188H28.8765V30.9203H0V0.242188Z" fill="white"/>
</mask>
<g mask="url(#mask0_1_689)">
<path fill-rule="evenodd" clip-rule="evenodd" d="M8.16812 6.92188C15.3296 -0.0454483 24.0224 -1.87905 27.4584 2.92902C30.8941 7.69596 27.8722 17.3121 20.7111 24.2794C19.345 25.6241 17.8962 26.8055 16.4886 27.7425C11.8938 29.3726 18.0203 13.4003 18.5585 12.0562C19.1794 10.1407 17.2339 9.44823 15.4951 9.93717C13.8393 10.4669 9.36866 13.6857 8.2096 14.9896C7.09201 16.3342 8.04402 16.6194 8.78929 16.2121C10.238 15.356 11.5627 15.193 12.1835 15.9266C12.5147 16.3747 12.3906 18.4935 11.7694 21.4274C11.273 23.2607 10.7348 25.257 9.82393 27.376C8.87192 29.3726 7.75433 30.8803 6.38821 30.9205C4.35977 30.7578 2.62102 29.8613 1.46226 28.3128C-2.0564 23.505 1.00668 13.9708 8.16812 6.92188ZM21.5406 2.97024C20.713 2.19616 18.8502 2.60377 17.4014 4.02946C15.9523 5.49628 15.4971 7.28906 16.325 8.10427C17.1114 8.91887 19.0157 8.42992 20.423 7.00392C21.8306 5.57792 22.3685 3.78514 21.5406 2.97024Z" fill="#F4811F"/>
</g>
<path fill-rule="evenodd" clip-rule="evenodd" d="M13.3283 2.9514C19.0714 -0.766452 24.9364 -1.0933 27.6248 2.66548C28.8061 4.42223 29.1727 6.7105 28.9282 9.36593C27.9506 13.0022 25.6697 16.8016 22.3296 20.152C20.049 22.399 17.5643 23.9924 15.2018 24.9732C15.4871 20.7239 18.5011 12.7979 18.8677 11.8176C19.4786 9.89683 17.5643 9.20281 15.8535 9.69278C14.2242 10.224 9.82529 13.4516 8.68483 14.759C7.58517 16.1073 8.5219 16.3932 9.25521 15.9848C10.6807 15.1268 11.9841 14.963 12.595 15.6986C12.9208 16.1479 12.7987 18.2725 12.1878 21.2144C11.8212 22.685 11.3732 24.2786 10.7215 25.9944C8.44059 26.0763 6.52632 25.2588 5.26343 23.6249C2.24949 19.4574 4.81547 11.0002 10.9658 4.95344C11.7804 4.17725 12.595 3.48261 13.3283 2.9514ZM21.8022 2.70665C20.9876 1.93045 19.1546 2.33917 17.7291 3.76876C16.3033 5.2399 15.8553 7.03727 16.6699 7.85471C17.4441 8.67153 19.3175 8.18125 20.7025 6.75135C22.0872 5.32146 22.6168 3.52378 21.8022 2.70665Z" fill="#AF2A30"/>
<path fill-rule="evenodd" clip-rule="evenodd" d="M52 45.5378V42.8056H49.808V43.7396H50.8728V45.0382C50.5419 45.128 50.2291 45.128 49.9602 45.128C48.8247 45.128 48.1889 44.4204 48.1889 43.0507C48.1889 41.6607 48.8247 40.7903 49.7638 40.7903C50.4881 40.7903 50.9174 41.2072 50.9174 41.9058H52V41.8054C52 40.7535 51.2216 40 49.8621 40C48.0552 40 47 41.1704 47 43.0956C47 44.9568 48.0552 46 49.907 46C50.7385 46 51.4097 45.864 52 45.5378Z" fill="#004A80"/>
<path fill-rule="evenodd" clip-rule="evenodd" d="M56 40V46H60V45.0169H57.2784V43.379H59.7459V42.4418H57.2784V41.0194H59.9611V40H56Z" fill="#004A80"/>
<path fill-rule="evenodd" clip-rule="evenodd" d="M64 40V46H65.0957V41.0557L67.3337 46H69V40H67.9053V44.8657L65.7699 40H64Z" fill="#004A80"/>
<path fill-rule="evenodd" clip-rule="evenodd" d="M73 40V46H77V45.0169H74.2594V43.379H76.6924V42.4418H74.2594V41.0194H76.8939V40H73Z" fill="#004A80"/>
<path fill-rule="evenodd" clip-rule="evenodd" d="M81 46V40H83.6228C85.0676 40 85.7332 40.4859 85.7332 41.525C85.7332 42.3949 85.3745 42.7988 84.483 42.9957C85.2211 43.0976 85.4773 43.3793 85.579 44.1546L85.6723 45.0172C85.7332 45.4835 85.8353 45.7925 86 46H84.5545C84.4422 45.7925 84.4017 45.5687 84.4017 45.2976L84.2993 44.3804C84.2271 43.6777 84.1863 43.6304 83.4996 43.6304H82.3012V46H81ZM82.3008 42.6192H83.1303C84.0219 42.6192 84.4013 42.4896 84.4013 41.8255C84.4013 41.0559 84.0219 40.9736 83.1303 40.9736H82.3008V42.6192Z" fill="#004A80"/>
<path fill-rule="evenodd" clip-rule="evenodd" d="M89 46L90.8782 40H92.2249L94 46H92.8681L92.5251 44.7168H90.441L90.0294 46H89ZM90.7422 43.7615H92.2259L91.5309 41.1885L90.7422 43.7615Z" fill="#004A80"/>
<path fill-rule="evenodd" clip-rule="evenodd" d="M97 40V46H101V45.0169H98.2971V40H97Z" fill="#004A80"/>
<mask id="mask1_1_689" style="mask-type:alpha" maskUnits="userSpaceOnUse" x="0" y="1" width="199" height="45">
<path fill-rule="evenodd" clip-rule="evenodd" d="M0 46H199V1H0V46Z" fill="white"/>
</mask>
<g mask="url(#mask1_1_689)">
<path fill-rule="evenodd" clip-rule="evenodd" d="M111 46H112V40H111V46Z" fill="#004A80"/>
<path fill-rule="evenodd" clip-rule="evenodd" d="M115 40V46H116.083V41.0557L118.276 46H120V40H118.907V44.8657L116.762 40H115Z" fill="#004A80"/>
<path fill-rule="evenodd" clip-rule="evenodd" d="M126.311 44.0202H125V44.1207C125 45.4093 125.841 46 127.449 46C129.117 46 130 45.3644 130 44.2844C130 43.2768 129.353 42.9503 128.072 42.596C127.029 42.2782 126.445 42.0876 126.445 41.5706C126.445 41.1155 126.813 40.7903 127.51 40.7903C128.114 40.7903 128.484 41.1155 128.524 41.7611H129.734V41.724C129.734 40.6634 128.955 40 127.562 40C126.044 40 125.153 40.7076 125.153 41.724C125.153 42.1777 125.367 42.5498 125.737 42.8056C126.148 43.0956 126.546 43.1867 127.029 43.323C128.072 43.7041 128.636 43.8397 128.636 44.3749C128.636 44.848 128.228 45.2288 127.562 45.2288C126.712 45.2288 126.311 44.8102 126.311 44.0202Z" fill="#004A80"/>
<path fill-rule="evenodd" clip-rule="evenodd" d="M134.278 40H133V43.6684C133 45.2706 133.831 46 135.509 46C137.236 46 138 45.2706 138 43.6684V40H136.835V43.7045C136.835 44.5986 136.435 45.0699 135.576 45.0699C134.699 45.0699 134.278 44.6451 134.278 43.7514V40Z" fill="#004A80"/>
<path fill-rule="evenodd" clip-rule="evenodd" d="M142 46V40H144.556C145.998 40 146.684 40.4859 146.684 41.525C146.684 42.3949 146.314 42.7988 145.476 42.9957C146.201 43.0976 146.416 43.3793 146.52 44.1546L146.62 45.0172C146.684 45.4835 146.785 45.7925 147 46H145.547C145.384 45.7925 145.384 45.5687 145.325 45.2976L145.271 44.3804C145.17 43.6777 145.128 43.6304 144.454 43.6304H143.29V46H142ZM143.289 42.6192H144.086C144.964 42.6192 145.384 42.4896 145.384 41.8255C145.384 41.0559 144.964 40.9736 144.086 40.9736H143.289V42.6192Z" fill="#004A80"/>
<path fill-rule="evenodd" clip-rule="evenodd" d="M150 46L151.842 40H153.192L155 46H153.834L153.487 44.7168H151.461L151.031 46H150ZM151.73 43.7615H153.225L152.491 41.1885L151.73 43.7615Z" fill="#004A80"/>
<path fill-rule="evenodd" clip-rule="evenodd" d="M158 40V46H159.076V41.0557L161.324 46H163V40H161.903V44.8657L159.758 40H158Z" fill="#004A80"/>
<path fill-rule="evenodd" clip-rule="evenodd" d="M170.632 46C172.065 46 172.906 45.3644 173 44.1946H171.839C171.793 44.8102 171.359 45.1832 170.735 45.1832C169.735 45.1832 169.254 44.475 169.254 42.9964C169.254 41.5706 169.773 40.8894 170.68 40.8894C171.359 40.8894 171.793 41.2441 171.839 41.8057H172.953C172.906 40.7076 172.065 40 170.632 40C168.961 40 168 41.1155 168 43.0507C168 44.9833 168.895 46 170.632 46Z" fill="#004A80"/>
<path fill-rule="evenodd" clip-rule="evenodd" d="M176 40V46H180V45.0169H177.255V43.379H179.737V42.4418H177.255V41.0194H179.892V40H176Z" fill="#004A80"/>
<path fill-rule="evenodd" clip-rule="evenodd" d="M29 43H45V42H29V43Z" fill="#004A80"/>
<path fill-rule="evenodd" clip-rule="evenodd" d="M183 43H199V42H183V43Z" fill="#004A80"/>
</g>
</svg>
