<svg width="49" height="42" viewBox="0 0 49 42" fill="none" xmlns="http://www.w3.org/2000/svg">
<mask id="mask0_1_1051" style="mask-type:luminance" maskUnits="userSpaceOnUse" x="0" y="0" width="28" height="42">
<path fill-rule="evenodd" clip-rule="evenodd" d="M0.000152588 0.101562H27.8614V41.4552H0.000152588V0.101562Z" fill="white"/>
</mask>
<g mask="url(#mask0_1_1051)">
<path fill-rule="evenodd" clip-rule="evenodd" d="M10.6132 17.8261L0.000152588 41.4554H10.6376L27.1205 17.7101C27.5294 17.1211 27.8614 16.0636 27.8614 15.3492V1.39601C27.8614 0.681247 27.2759 0.101562 26.5532 0.101562H12.4527C11.7297 0.101562 11.1442 0.681247 11.1442 1.39601V15.3492C11.1442 16.0636 10.9065 17.1725 10.6132 17.8261Z" fill="#EEECDD"/>
</g>
<mask id="mask1_1_1051" style="mask-type:luminance" maskUnits="userSpaceOnUse" x="20" y="0" width="29" height="42">
<path fill-rule="evenodd" clip-rule="evenodd" d="M20.84 0.101562H48.6821V41.4552H20.84V0.101562Z" fill="white"/>
</mask>
<g mask="url(#mask1_1_1051)">
<path fill-rule="evenodd" clip-rule="evenodd" d="M31.4461 17.8261L20.84 41.4554H31.4702L47.9418 17.7101C48.3503 17.1211 48.6821 16.0636 48.6821 15.3492V1.39601C48.6821 0.681247 48.0974 0.101562 47.3749 0.101562H33.2841C32.5615 0.101562 31.9768 0.681247 31.9768 1.39601V15.3492C31.9768 16.0636 31.7388 17.1725 31.4461 17.8261Z" fill="#EEECDD"/>
</g>
</svg>
