<svg width="450" height="262" viewBox="0 0 450 262" fill="none" xmlns="http://www.w3.org/2000/svg">
<path d="M449.991 85.9415C449.991 48.1661 419.37 17.5449 381.595 17.5449H97.9542C60.1788 17.5449 29.5576 48.1661 29.5576 85.9415C29.5576 89.7785 29.8722 93.5472 30.481 97.2132C32.9501 112.076 28.7711 127.191 18.9219 138.593C7.69123 151.589 0.892611 168.523 0.878932 187.038C0.844734 227.892 35.0088 261.317 75.8621 261.317H387.005C412.448 261.317 433.077 240.689 433.077 215.245C433.077 194.494 419.357 176.957 400.493 171.191C397.333 170.227 394.782 167.853 393.783 164.7C393.749 164.598 393.715 164.495 393.687 164.392C391.964 159.037 394.946 153.264 400.356 151.725C429.007 143.572 449.998 117.206 449.998 85.9347L449.991 85.9415Z" fill="#FFF0E9"/>
<path d="M91.3585 156.035L107.924 142.479L351.635 145.488L379.951 188.263L367.893 208.146L359.158 203.331L311.862 199.713L301.014 205.738L298.71 206.778L275.106 193.085L143.764 202.12L132.02 194.597L82.6174 188.571L77.2004 191.279L72.9803 189.173C72.9803 189.173 75.9897 186.464 74.786 177.429C73.5753 168.394 91.3516 156.042 91.3516 156.042V156.028L91.3585 156.035Z" fill="#111111"/>
<path d="M83.6211 116.268L102.902 103.417L127.402 104.429L136.642 115.475L313.776 121.501C320.807 122.103 333.857 125.721 333.857 125.721C333.857 125.721 331.442 124.709 358.056 131.849C384.669 138.976 395.113 150.022 397.924 153.038C398.546 153.709 399.052 154.413 399.463 155.111C400.687 157.176 401.234 159.563 401.221 161.964C401.166 168.038 400.968 185.965 400.639 186.895C400.236 187.996 396.419 192.312 396.419 192.312L398.984 198.139C399.442 199.179 399.271 200.403 398.54 201.279L396.707 203.474C396.002 204.315 395.038 204.904 393.964 205.157L386.522 206.873C385.353 207.147 384.163 207.311 382.972 207.373L367.905 208.173C375.743 167.511 337.988 166.697 337.988 166.697C308.666 164.789 302.942 194.918 302.942 194.918C301.834 195.116 301.334 196.826 301.334 196.826L298.017 206.969L143.776 202.154C144.077 164.194 113.148 162.888 113.148 162.888C83.4296 160.275 79.4079 185.575 79.4079 185.575H78.1973C76.59 186.587 74.1756 194.61 74.1756 194.61C72.069 194.186 70.5095 193.536 69.5109 193.03C68.6696 192.599 67.9994 191.915 67.5753 191.074L66.0432 188.126C65.7491 187.565 65.3729 187.038 64.942 186.56C64.2717 185.821 63.2732 184.549 63.1364 183.366C62.9996 182.155 63.41 180.158 63.6835 178.947C63.8477 178.222 63.9434 177.483 63.9434 176.738L64.1076 160.863C64.1144 159.55 64.4085 158.25 64.9489 157.046L67.9515 150.405C68.6013 148.962 68.998 147.409 69.1142 145.823L69.4972 140.406C69.5383 139.858 69.6135 139.318 69.7435 138.778L72.7734 125.728C72.5956 124.497 72.6572 123.573 72.7734 122.923C72.9034 122.219 73.3343 121.61 73.9499 121.234L77.3971 119.107C78.806 118.095 83.6211 116.296 83.6211 116.296H83.6143L83.6211 116.268Z" fill="#EC6626"/>
<path d="M384.851 153.019L389.023 152.438C390.302 152.26 391.348 151.391 391.725 150.208C392.053 149.168 392.101 148.211 391.868 147.369L391.519 147.465C391.731 148.238 391.677 149.127 391.376 150.105C391.041 151.152 390.104 151.932 388.968 152.089L384.878 152.65L370.747 148.149C369.332 147.698 367.656 147.13 366.042 146.378C359.407 143.293 341.221 140.885 335.81 140.222C334.497 140.065 333.198 139.784 331.932 139.401L327.569 138.088C326.461 137.753 325.441 137.233 324.532 136.508L321.604 134.196L321.379 134.477L324.306 136.789C325.243 137.534 326.31 138.081 327.459 138.437L331.823 139.75C333.102 140.14 334.429 140.42 335.756 140.578C341.159 141.234 359.291 143.635 365.884 146.706C367.519 147.472 369.202 148.033 370.638 148.491L384.81 152.999H384.851V153.019Z" fill="#D45027"/>
<path d="M108.374 90.6675L172.243 87.5076L273.004 91.4267C284.003 96.9942 316.99 122.752 316.99 122.752L318.796 122.903C321.805 123.347 336.866 124.558 336.271 128.628C335.669 132.697 321.504 134.352 321.504 134.352L279.632 134.954L142.415 125.618C136.834 125.468 134.125 121.549 134.125 121.549L128.4 110.851C127.19 107.842 124.331 107.842 124.331 107.842H111.677C109.872 107.842 107.909 109.648 107.909 109.648C107.909 109.648 95.8505 118.991 93.9012 120.796C91.9519 122.602 86.2134 122.451 86.2134 122.451C79.4353 122.903 80.4886 118.984 80.4886 118.984C80.94 117.924 83.498 115.673 83.498 115.673C83.498 115.673 99.6123 97.5961 101.869 95.7904C104.126 93.9847 108.347 90.6675 108.347 90.6675V90.6812L108.374 90.6675Z" fill="#132147"/>
<path d="M188.12 98.8955L189.05 116.747L152.095 115.461L151.199 100.024L188.12 98.8955Z" fill="#FFF1EB"/>
<path d="M151.208 100.161L152.104 115.468L189.051 116.747L189.407 123.512C186.842 124.722 141.899 120.899 141.899 120.899C140.093 115.482 140.531 100.572 140.531 100.572L151.201 100.182V100.168L151.208 100.161Z" fill="#FEE5DA"/>
<path d="M275.608 123.211L276.634 130.037L208.703 125.386C207.191 123.129 202.219 98.6152 202.219 98.6152L211.945 98.7589L217.977 118.69L275.608 123.217V123.211Z" fill="#FEE5DA"/>
<path d="M275.606 123.211L217.975 118.683L212.086 98.6152L248.24 99.7575C250.757 99.8395 253.178 100.708 255.169 102.247L272.548 115.666C274.655 117.028 275.106 120.037 275.106 120.037L275.599 123.217L275.606 123.211Z" fill="#FFF1EB"/>
<path d="M108 86.4967C112.91 85.3819 129.948 82.7828 186.252 80.7172C260.052 78.0087 273.006 91.5649 273.006 91.5649C274.518 93.9793 269.388 95.785 269.388 95.785C263.061 98.4935 253.725 97.8916 253.725 97.8916C229.321 96.0859 194.679 96.681 194.679 96.681C182.62 96.9819 114.395 99.9914 114.395 99.9914C112.739 100.142 110.927 99.3895 110.927 99.3895C105.51 97.4333 105.052 93.2133 105.052 93.2133C104.703 91.818 104.703 90.6689 104.853 89.7661C105.127 88.1382 106.379 86.8592 107.993 86.4899L108 86.4967Z" fill="#EC6626"/>
<path d="M268.94 98.2048C270.424 97.9586 275.274 96.789 276.69 93.5265C288.16 100.551 309.841 117.226 315.573 121.658C316.51 122.383 317.618 122.807 318.801 122.903C319.437 122.999 320.586 123.129 322.03 123.3C321.647 124.319 321.311 125.133 321.065 125.611C319.704 128.169 315.792 129.825 310.067 131.028C304.335 132.225 300.881 128.764 300.881 128.764L268.167 101.857C267.217 101.071 267.025 99.5864 267.907 98.7178C268.167 98.4579 268.509 98.2595 268.954 98.1843V98.198L268.94 98.2048Z" fill="#FFF1EB"/>
<path d="M89.2421 116.57C87.2859 118.985 85.0288 118.985 82.7649 117.932C82.3887 117.754 82.0946 117.535 81.8279 117.295C82.6486 116.447 83.5104 115.674 83.5104 115.674C83.5104 115.674 99.6247 97.5972 101.882 95.7916C102.176 95.5522 102.504 95.2991 102.846 95.0187C103.318 96.0583 103.742 96.9885 103.988 97.4399C104.741 98.801 103.537 100.449 103.537 100.449L89.2352 116.564H89.2421V116.57Z" fill="#FFF1EB"/>
<path d="M117.102 101.809L135.761 100.968C136.513 100.934 137.156 101.522 137.19 102.281L137.738 116.72C136.985 116.72 136.082 116.118 136.082 116.118L131.418 108.889C130.207 105.886 126.445 105.421 126.445 105.421C126.445 105.421 120.721 104.819 118.758 104.361C116.801 103.916 117.102 101.803 117.102 101.803H117.096L117.102 101.809Z" fill="#111111"/>
<path d="M360.402 150.241C359.868 149.612 360.128 148.64 360.901 148.367C367.228 146.089 374.423 147.806 374.423 147.806C384.881 150.309 392.849 156.055 396.365 158.941C397.575 159.933 398.047 161.547 397.575 163.031L396.946 165.015C396.447 166.595 394.969 167.648 393.314 167.6C390.701 167.518 386.967 167.402 385.469 167.272C383.055 167.073 381.051 165.466 381.051 165.466C378.233 162.169 369.163 157.04 365.326 154.953C364.15 154.317 363.117 153.462 362.248 152.437L360.395 150.227V150.241H360.402Z" fill="#FFF1EB"/>
<path d="M383.107 179.687C384.167 177.881 385.522 178.031 385.522 178.031H400.993C400.897 182.655 400.781 186.458 400.631 186.868C400.35 187.641 398.408 189.973 397.252 191.321C396.732 191.923 396.616 192.764 396.937 193.489L398.982 198.119C399.29 198.838 399.29 199.624 399.037 200.329H387.929C385.823 199.877 384.161 197.169 384.161 197.169C383.135 195.124 382.033 188.564 381.548 185.439C381.37 184.276 381.507 183.1 381.958 182.019C382.259 181.294 382.656 180.453 383.1 179.693H383.107V179.687Z" fill="#F48220"/>
<path d="M394.401 190.691C394.401 190.691 394.599 191.704 395.707 191.902H396.918C396.712 192.401 396.706 192.976 396.931 193.502L398.484 197.025H385.044C385.044 197.025 384.586 197.011 383.963 196.765C382.992 194.371 381.993 188.386 381.528 185.452C381.35 184.289 381.487 183.113 381.939 182.032C381.939 182.032 381.946 182.019 381.946 182.012C383.259 181.157 384.25 180.507 385.564 179.652H390.269C390.269 179.652 392.479 179.549 392.684 180.958L394.394 190.698H394.401V190.691Z" fill="#151A21"/>
<path d="M390.457 190.276C390.842 187.519 390.632 185.211 389.989 185.121C389.345 185.031 388.512 187.194 388.127 189.951C387.742 192.708 387.951 195.016 388.595 195.106C389.238 195.196 390.072 193.034 390.457 190.276Z" fill="#171116"/>
<path d="M74.3731 195.302C74.2705 192.244 77.7929 185.712 77.7929 185.712H79.0036C81.4932 173.586 89.0989 168.688 89.0989 168.688L88.497 170.193C76.7533 179.994 79.3113 200.725 79.3113 200.725C79.3113 200.725 78.3128 200.924 77.5057 200.329C76.7054 199.727 74.4005 195.308 74.4005 195.308H74.3868L74.3731 195.302Z" fill="#161A1F"/>
<path d="M303.282 193.995C303.282 197.415 302.783 209.001 302.694 211.128C302.694 211.286 302.516 211.375 302.386 211.286C301.271 210.561 299.985 209.138 299.281 208.324C298.918 207.893 298.699 207.346 298.72 206.785C298.829 202.257 303.282 193.988 303.282 193.988H303.289L303.282 193.995Z" fill="#161A1F"/>
<path d="M286.463 129.921L282.442 132.629C282.093 133.149 281.894 133.601 281.799 133.97C281.552 134.982 282.353 135.94 283.399 135.94H286.655C288.358 135.741 287.763 133.731 287.763 133.731L286.456 129.914H286.463V129.921Z" fill="#161A1F"/>
<path d="M137.847 167.279L153.401 172.737C157.881 174.31 162.525 175.336 167.251 175.781C192.407 178.148 275.926 185.986 281.043 186.157C284.791 186.287 287.923 188.592 289.749 190.315C290.433 190.958 289.941 192.1 289.004 192.046C271.583 191.054 168.133 185.138 161.143 184.96C153.517 184.761 147.088 177.935 147.088 177.935L137.847 167.286H137.854L137.847 167.279Z" fill="#D45027"/>
<path d="M277.238 122.479C277.648 122.281 278.127 122.206 278.571 122.288C286.376 123.656 288.557 128.416 288.557 128.416L287.545 131.439C287.217 132.417 286.574 133.245 285.719 133.792L284.501 134.579C283.414 135.276 282.135 135.611 280.849 135.529L274.7 135.146C272.997 134.75 272.895 133.135 272.895 133.135L273.072 127.082C273.086 126.549 273.25 126.022 273.531 125.571C274.557 123.95 276.28 122.958 277.231 122.493V122.479H277.238Z" fill="#EC6626"/>
<path d="M273.811 130.728C277.019 130.926 281.951 132.137 281.951 132.137L281.15 133.545L274.625 133.183C274.222 133.162 273.887 132.848 273.825 132.451C273.695 131.63 273.818 130.741 273.818 130.741L273.811 130.728Z" fill="#F4F6FB"/>
<path d="M214.188 140.967L207.554 140.686C206.323 140.638 205.297 141.623 205.297 142.848C205.297 143.99 206.186 144.941 207.328 145.009L214.024 145.412C215.755 148.121 218.921 148.354 218.921 148.354C223.969 148.654 227.806 145.795 227.806 145.795C228.935 144.968 228.333 143.237 228.333 143.237C228.333 143.237 226.602 140.823 221.637 139.845C216.664 138.867 214.181 140.974 214.181 140.974H214.188V140.967Z" fill="#DA5426"/>
<path d="M210.727 141.219V144.872L207.868 144.639C206.937 144.557 206.219 143.771 206.247 142.834C206.267 141.849 207.095 141.069 208.08 141.11L210.727 141.219Z" fill="#151A21"/>
<path d="M226.12 142.801C226.791 142.883 227.283 143.45 227.263 144.128C227.242 144.853 226.64 145.407 225.929 145.386L214.425 145.147C213.877 145.133 213.33 145.106 212.776 145.058L210.957 144.914V141.248L212.776 141.316C213.467 141.337 214.158 141.399 214.849 141.474L226.12 142.794V142.801Z" fill="#151A21"/>
<path d="M140.965 82.0299C141.074 82.0299 141.197 82.0094 141.3 81.9478C141.649 81.7631 141.779 81.3254 141.594 80.9834C138.995 76.1136 129.228 71.5242 128.811 71.3258C128.455 71.1617 128.031 71.319 127.867 71.6746C127.709 72.0303 127.86 72.4544 128.215 72.6185C128.311 72.6596 137.969 77.1942 140.335 81.6469C140.465 81.8931 140.712 82.0299 140.965 82.0299H140.971H140.965Z" fill="#132147"/>
<path d="M139.748 83.3349L147.374 83.2323C147.374 83.2323 146.676 80.6196 143.455 80.4212C140.247 80.2229 139.734 83.3281 139.734 83.3281H139.741L139.748 83.3349Z" fill="#132147"/>
<path d="M336.267 228.788C351.823 228.788 364.433 216.178 364.433 200.623C364.433 185.067 351.823 172.457 336.267 172.457C320.712 172.457 308.101 185.067 308.101 200.623C308.101 216.178 320.712 228.788 336.267 228.788Z" fill="#161A1F"/>
<path d="M355.75 200.623C355.75 189.864 347.029 181.137 336.263 181.137C325.498 181.137 316.777 189.857 316.777 200.623C316.777 211.389 325.498 220.109 336.263 220.109C347.029 220.109 355.75 211.389 355.75 200.623ZM348.417 192.805C349.272 194.2 349.902 195.739 350.264 197.388L342.426 200.233L340.996 196.745C342.036 195.685 346.906 193.469 348.411 192.805H348.417ZM320.936 200.329C320.956 198.646 321.271 197.025 321.811 195.514L329.335 197.319L328.603 201.013C327.324 201.286 323.022 200.657 320.929 200.322H320.936V200.329ZM323.063 192.908C324.595 190.37 326.852 188.332 329.554 187.074C330.039 187.559 330.245 188.653 330.245 188.653L330.881 194.467C330.935 194.966 330.477 195.37 329.991 195.254C328.316 194.83 325.074 194.016 324.513 193.845C323.966 193.681 323.35 193.168 323.049 192.894H323.056L323.063 192.908ZM339.355 196.649C339.355 197.566 338.616 198.304 337.7 198.304C336.783 198.304 336.045 197.566 336.045 196.649C336.045 195.733 336.783 194.994 337.7 194.994C338.616 194.994 339.355 195.733 339.355 196.649ZM337.098 193.715L333.329 193.865C332.768 192.668 332.358 188.229 332.201 186.15C333.343 185.87 334.526 185.706 335.764 185.706C336.209 185.706 336.653 185.726 337.091 185.767V193.715H337.098ZM334.157 203.502C335.073 203.502 335.812 204.241 335.812 205.158C335.812 206.074 335.073 206.813 334.157 206.813C333.24 206.813 332.502 206.074 332.502 205.158C332.502 204.241 333.24 203.502 334.157 203.502ZM332.878 198.455C333.336 199.241 333.069 200.26 332.276 200.719C331.489 201.177 330.47 200.91 330.012 200.117C329.554 199.33 329.82 198.311 330.614 197.853C331.4 197.395 332.42 197.661 332.878 198.455ZM321.045 202.388C321.668 202.134 322.68 202.258 322.68 202.258L328.418 203.448C328.918 203.55 329.157 204.104 328.89 204.535C327.967 205.999 326.189 208.824 325.86 209.302C325.573 209.713 325.012 210.096 324.636 210.328C322.714 208.153 321.428 205.411 321.052 202.381H321.045V202.388ZM326.182 211.86L330.662 205.773L333.787 207.88C333.555 209.09 331.544 212.456 330.381 214.35C328.849 213.748 327.427 212.907 326.189 211.854L326.182 211.86ZM332.508 215.007C332.488 214.33 332.98 213.427 332.98 213.427L336.133 208.489C336.407 208.064 337.016 208.044 337.317 208.441C338.356 209.822 340.374 212.497 340.696 212.968C340.949 213.345 341.099 213.912 341.188 214.336C339.505 214.993 337.672 215.376 335.757 215.376C334.642 215.376 333.555 215.239 332.515 215.014H332.508V215.007ZM338.527 202.586C338.527 201.669 339.266 200.931 340.183 200.931C341.099 200.931 341.838 201.669 341.838 202.586C341.838 203.502 341.099 204.241 340.183 204.241C339.266 204.241 338.527 203.502 338.527 202.586ZM347.186 191.054C346.872 191.677 345.805 192.183 345.805 192.183L340.354 194.31C339.882 194.495 339.375 194.159 339.369 193.66C339.348 191.93 339.287 188.592 339.314 188.011C339.328 187.409 339.704 186.622 339.875 186.287C342.768 187.128 345.305 188.804 347.186 191.068V191.054ZM343.39 213.235L339.163 207.387L342.125 205.062C343.165 205.623 345.613 208.393 347.084 210.103C346.037 211.341 344.786 212.401 343.383 213.242H343.39V213.235ZM348.349 208.345C347.761 208.105 347.18 207.565 347.18 207.565L343.233 203.242C342.898 202.866 343.028 202.271 343.493 202.08C345.093 201.43 348.199 200.178 348.739 199.987C349.32 199.788 350.203 199.857 350.565 199.898C350.572 200.103 350.599 200.301 350.599 200.52C350.599 203.386 349.772 206.067 348.356 208.338H348.349V208.345Z" fill="#FFF1EB"/>
<path d="M110.931 227.578C126.487 227.578 139.097 214.968 139.097 199.413C139.097 183.857 126.487 171.247 110.931 171.247C95.3757 171.247 82.7654 183.857 82.7654 199.413C82.7654 214.968 95.3757 227.578 110.931 227.578Z" fill="#161A1F"/>
<path d="M130.421 199.413C130.421 188.654 121.701 179.927 110.935 179.927C100.17 179.927 91.449 188.654 91.449 199.413C91.449 210.172 100.176 218.899 110.935 218.899C121.694 218.899 130.421 210.179 130.421 199.413ZM123.089 191.595C123.944 192.991 124.574 194.529 124.936 196.178L117.098 199.023L115.668 195.535C116.708 194.475 121.578 192.259 123.082 191.595H123.089ZM95.6075 199.119C95.6281 197.436 95.9427 195.815 96.483 194.304L104.007 196.109L103.275 199.803C101.996 200.076 97.6936 199.447 95.6007 199.112H95.6075V199.119ZM97.7347 191.698C99.2668 189.16 101.524 187.122 104.226 185.864C104.711 186.349 104.916 187.444 104.916 187.444L105.552 193.257C105.607 193.757 105.149 194.16 104.663 194.044C102.988 193.62 99.7455 192.806 99.1847 192.635C98.6375 192.471 98.0219 191.958 97.721 191.684H97.7278L97.7347 191.698ZM114.027 195.439C114.027 196.356 113.288 197.094 112.372 197.094C111.455 197.094 110.716 196.356 110.716 195.439C110.716 194.523 111.455 193.784 112.372 193.784C113.288 193.784 114.027 194.523 114.027 195.439ZM111.77 192.505L108.001 192.655C107.44 191.458 107.03 187.019 106.872 184.94C108.015 184.66 109.198 184.496 110.436 184.496C110.881 184.496 111.325 184.516 111.763 184.557V192.505H111.77ZM108.829 202.292C109.745 202.292 110.484 203.031 110.484 203.948C110.484 204.864 109.745 205.603 108.829 205.603C107.912 205.603 107.173 204.864 107.173 203.948C107.173 203.031 107.912 202.292 108.829 202.292ZM106.948 199.502C106.161 199.96 105.142 199.693 104.684 198.9C104.226 198.113 104.492 197.094 105.286 196.636C106.072 196.178 107.091 196.445 107.55 197.238C108.008 198.024 107.741 199.044 106.948 199.502ZM95.7238 201.171C96.3462 200.918 97.3585 201.041 97.3585 201.041L103.097 202.231C103.596 202.333 103.836 202.887 103.569 203.318C102.646 204.782 100.867 207.607 100.539 208.086C100.252 208.496 99.6908 208.879 99.3146 209.112C97.3927 206.937 96.1068 204.194 95.7307 201.164H95.7238V201.171ZM105.046 213.14C103.514 212.538 102.092 211.697 100.854 210.644L105.334 204.556L108.459 206.663C108.227 207.874 106.216 211.239 105.053 213.133L105.046 213.14ZM107.187 213.797C107.167 213.12 107.659 212.217 107.659 212.217L110.812 207.279C111.086 206.854 111.694 206.834 111.995 207.231C113.035 208.612 115.053 211.287 115.374 211.759C115.627 212.135 115.778 212.702 115.867 213.126C114.184 213.783 112.351 214.166 110.436 214.166C109.321 214.166 108.234 214.029 107.194 213.804H107.187V213.797ZM113.206 201.376C113.206 200.459 113.945 199.721 114.861 199.721C115.778 199.721 116.516 200.459 116.516 201.376C116.516 202.292 115.778 203.031 114.861 203.031C113.945 203.031 113.206 202.292 113.206 201.376ZM121.865 189.844C121.55 190.467 120.483 190.973 120.483 190.973L115.032 193.1C114.56 193.285 114.054 192.949 114.047 192.45C114.027 190.72 113.965 187.382 113.993 186.801C114.006 186.199 114.382 185.412 114.553 185.077C117.447 185.918 119.984 187.594 121.865 189.858V189.844ZM121.769 208.886C120.723 210.124 119.471 211.184 118.069 212.025L113.842 206.177L116.804 203.852C117.843 204.413 120.292 207.183 121.762 208.893H121.769V208.886ZM123.035 207.128C122.446 206.889 121.865 206.348 121.865 206.348L117.919 202.026C117.583 201.65 117.713 201.054 118.178 200.863C119.779 200.213 122.884 198.962 123.424 198.77C124.006 198.572 124.888 198.64 125.251 198.681C125.257 198.886 125.285 199.085 125.285 199.303C125.285 202.169 124.457 204.85 123.041 207.121H123.035V207.128Z" fill="#FFF1EB"/>
<path d="M299.696 145.193C299.99 173.195 294.724 195.615 294.676 195.827C293.759 201.491 288.548 201.798 287.46 201.798H287.262L159.333 196.778C152.083 196.381 148.574 190.13 148.54 190.062C148.444 189.884 139.669 172.976 135.722 169.625C131.742 166.246 127.125 161.622 127.077 161.581C121.441 153.298 116.783 139.653 115.039 134.181C114.458 132.362 114.554 130.399 115.313 128.648L124.184 107.986H124.567L115.634 128.792C114.909 130.468 114.82 132.342 115.374 134.079C117.105 139.544 121.763 153.141 127.344 161.362C127.364 161.383 131.988 165.986 135.948 169.358C139.942 172.75 148.478 189.2 148.848 189.897C148.868 189.952 152.295 196.039 159.346 196.429L204.372 198.201L204.707 198.242V198.221L287.275 201.463C287.535 201.47 293.363 201.771 294.327 195.786C294.382 195.547 299.642 173.174 299.347 145.207C299.347 145.145 299.594 140.091 295.182 135.385L295.141 135.331L294.929 134.77H295.312L295.469 135.166C299.97 139.982 299.71 145.166 299.71 145.221H299.717V145.207L299.696 145.193Z" fill="#D45027"/>
<path d="M128.246 99.4711C128.109 99.478 127.966 99.4848 127.836 99.4916C128.212 98.6435 128.691 97.9185 129.299 97.3371C132.705 94.0678 137.117 94.2456 137.151 94.2456L194.68 91.9817C248.945 91.0925 256.421 96.7489 256.702 96.9952C257.16 97.2756 257.652 97.597 258.165 97.939C257.981 97.9596 257.803 97.9869 257.639 98.0211C257.242 97.7612 256.852 97.5013 256.49 97.2824C256.394 97.214 248.665 91.4482 194.68 92.3374L194.283 92.351L194.249 92.139L193.9 92.1869L193.92 92.3716L137.138 94.5944H137.008C136.262 94.5944 132.507 94.7381 129.532 97.5902C129.005 98.0895 128.581 98.7324 128.239 99.4574H128.246V99.4711Z" fill="#D45027"/>
<path d="M205.486 180.924C205.486 180.972 205.883 185.787 205.685 188.386C205.487 190.93 204.714 197.927 204.686 198.207L204.351 198.194H204.331C204.337 198.125 205.131 190.937 205.343 188.365C205.541 185.8 205.145 181.013 205.145 180.965C205.145 180.965 202.333 143.805 202.135 141.199C201.971 139.024 199.81 131.829 199.132 129.633L199.515 129.647C200.213 131.952 202.327 138.956 202.498 141.165C202.696 143.771 205.507 180.931 205.507 180.931H205.5L205.486 180.924Z" fill="#D45027"/>
<path d="M194.527 96.7477L193.925 92.3772L194.281 92.3635L194.897 96.7409L194.527 96.7477Z" fill="#D45027"/>
<path d="M194.277 92.3646L193.922 92.3783L193.894 92.2005L194.257 92.1526L194.277 92.3646Z" fill="#88171A"/>
<path d="M204.698 198.229L204.363 198.188H204.698V198.222V198.229Z" fill="#88171A"/>
<path d="M111.061 99.3749L111.007 99.4364C110.877 99.3954 110.754 99.3543 110.644 99.3065L110.774 99.1628L111.226 97.193L117.292 91.735C117.723 91.1468 124.522 84.2113 124.816 83.9104L125.069 84.1566C124.987 84.2387 117.99 91.3793 117.552 91.9744L111.547 97.3845L111.061 99.3612H111.068L111.061 99.3749Z" fill="#D45027"/>
<path d="M89.8511 122.494L90.1384 122.179L90.6992 122.083L90.1247 122.719C90.0289 122.863 87.3546 126.529 84.1742 127.589L77.5466 129.853L77.4371 129.518L84.0648 127.254C87.1426 126.228 89.8238 122.535 89.8511 122.5V122.494Z" fill="#D45027"/>
<path d="M291.822 128.272C286.097 122.643 267.281 104.408 257.644 98.0267C257.801 98.0061 257.986 97.9719 258.171 97.9446C267.924 104.517 286.412 122.444 292.082 128.025C292.821 128.757 293.375 129.612 293.744 130.59L295.303 134.749H294.92L293.402 130.72C293.053 129.797 292.526 128.983 291.822 128.285V128.272Z" fill="#161A1F"/>
<path d="M128.126 99.6967L124.562 107.986H124.179L127.804 99.553C127.804 99.553 127.825 99.5188 127.839 99.4983C127.982 99.4915 128.119 99.4846 128.249 99.4778C128.208 99.5599 128.153 99.6214 128.119 99.7035L128.126 99.6967Z" fill="#161A1F"/>
<path d="M198.924 128.984L194.519 96.762H194.882L195.244 99.3816L199.266 128.902C199.286 128.956 199.375 129.237 199.498 129.647L199.115 129.633C198.999 129.243 198.917 128.984 198.917 128.984H198.924Z" fill="#161A1F"/>
<path d="M110.634 99.3049C110.736 99.346 110.873 99.387 110.996 99.4349L90.6894 122.074L90.1285 122.17L110.634 99.3049Z" fill="#161A1F"/>
<path d="M96.5951 135.81C98.476 134.969 99.8782 133.122 100.473 132.226C100.685 131.898 100.699 131.495 100.494 131.153C100.131 130.517 99.372 129.491 98.0793 128.711C96.0685 127.5 92.6623 127.61 92.6623 127.61C87.6215 127.316 82.0062 127.986 79.3113 128.362C78.2785 128.513 77.3552 129.046 76.6986 129.853C75.8641 130.893 74.6056 132.466 73.2787 134.135C70.9738 137.042 70.1735 141.262 70.1735 141.262L68.8672 148.491L68.5662 151.596C70.2761 153.169 73.1351 153.546 74.9134 153.614C75.8641 153.655 76.767 153.204 77.2868 152.403C79.0514 149.763 83.2578 143.471 84.8173 141.05C86.8281 137.938 90.1385 137.329 90.1385 137.329L95.918 136.002C96.1506 135.947 96.3763 135.886 96.5951 135.79H96.5883L96.5951 135.81Z" fill="#F27771"/>
<path d="M76.9877 134.545L72.3709 145.393L78.2941 147.602C78.2941 147.602 82.8082 139.976 84.3198 138.266C85.8314 136.556 88.7382 135.954 88.7382 135.954L89.4359 134.942L76.9808 134.545H76.9877Z" fill="#88171A"/>
<path d="M318.795 122.909C319.432 123.005 320.581 123.135 322.024 123.306C321.641 124.325 321.306 125.139 321.059 125.618C319.698 128.176 315.786 129.831 310.061 131.035C304.33 132.232 300.876 128.771 300.876 128.771L292.312 121.733L304.111 121.063C306.847 120.905 309.48 120.112 311.826 118.758C313.392 119.955 314.678 120.953 315.567 121.644C316.504 122.369 317.612 122.793 318.795 122.889V122.903V122.909Z" fill="#FEE5DA"/>
<path d="M364.519 150.405C370.107 148.989 378.226 150.932 378.896 151.062C387.042 153.544 393.615 158.428 396.078 160.425C396.83 161.034 397.192 162.025 396.98 162.969C396.755 164.002 396.324 164.85 395.9 165.486C395.38 166.266 394.484 166.704 393.547 166.629L385.675 166.006C384.19 165.89 382.781 165.35 381.598 164.447L374.519 159.05C374.519 159.05 367.891 155.282 366.831 154.68C366.243 154.345 364.985 153.25 363.993 152.354C363.316 151.732 363.61 150.637 364.499 150.419L364.513 150.405H364.519Z" fill="#FDDBCE"/>
<path d="M372.711 152.985C379.332 151.904 384.161 156.411 384.161 157.389C384.161 157.813 383.97 158.278 383.737 158.696C383.245 159.571 382.937 160.529 382.909 161.534L382.855 163.442C382.834 164.236 381.904 164.653 381.302 164.14C379.674 162.752 377.219 160.542 376.631 159.366C376.008 158.121 373.676 155.741 372.281 154.373C371.809 153.915 372.069 153.108 372.711 153.005V152.991V152.985Z" fill="#F4F6FB"/>
<path d="M315.221 3.0522C306.508 5.63759 296.987 8.64704 290.742 11.1504V67.0235C290.742 76.5238 294.388 85.7026 301.104 92.4397C308.081 99.4367 321.015 107.289 337.984 111.693C354.953 107.289 364.234 99.4367 371.218 92.4397C377.92 85.7095 381.58 76.5238 381.58 67.0235V11.1504C375.335 8.65388 365.814 5.63759 357.101 3.04536C343.428 -1.0174 328.88 -1.0174 315.221 3.05904V3.0522Z" fill="#132147"/>
<path d="M317.403 3.0522C308.703 5.63759 299.182 8.64704 292.937 11.1504V67.0235C292.937 76.5238 296.583 85.7026 303.3 92.4397C310.276 99.4367 321.397 107.268 338.36 111.673C355.329 107.268 366.443 99.4367 373.42 92.4397C380.123 85.7095 383.782 76.5238 383.782 67.0235V11.1504C377.537 8.65388 368.016 5.63759 359.303 3.04536C345.623 -1.0174 331.069 -1.0174 317.403 3.05904V3.0522Z" fill="#00305B"/>
<path d="M319.73 8.89918C311.987 11.2041 303.526 13.8785 297.973 16.1013V65.7778C297.973 74.2248 301.215 82.3845 307.186 88.3692C313.389 94.5933 323.273 101.549 338.354 105.461C353.435 101.549 363.319 94.5933 369.522 88.3692C375.48 82.3913 378.735 74.2179 378.735 65.7778V16.1013C373.182 13.8785 364.728 11.211 356.978 8.89918C344.831 5.281 331.897 5.281 319.736 8.89918H319.723H319.73Z" fill="#FFDBCF"/>
<g opacity="0.6">
<path d="M369.167 76.5928C369.167 76.5928 357.464 93.6098 342.574 97.871C342.574 97.871 360.658 96.804 369.167 76.5928Z" fill="#FFF2EB"/>
<path d="M302.145 22.3408V47.8733C302.145 47.8733 306.399 35.1105 302.145 22.3408Z" fill="#FFF2EB"/>
</g>
<path d="M356.972 8.89918C344.824 5.281 331.891 5.281 319.73 8.89918C311.987 11.2041 303.526 13.8785 297.973 16.1013V17.8113C303.506 15.6704 311.399 13.1808 318.663 11.0263C330.81 7.40813 343.744 7.40813 355.905 11.0263C363.647 13.3313 372.108 16.0056 377.661 18.2285V67.9049C377.661 72.5627 376.67 77.1248 374.782 81.297C377.354 76.5844 378.728 71.2427 378.728 65.7778V16.1013C373.175 13.8785 364.721 11.211 356.972 8.89918Z" fill="#FFDBCF"/>
<path d="M332.465 71.272C331.104 71.272 329.742 70.7522 328.696 69.7194L319.12 60.1439C317.048 58.0715 317.048 54.6995 319.12 52.6202C321.193 50.541 324.565 50.5478 326.644 52.6202L332.451 58.4271L349.961 40.9176C352.033 38.8452 355.405 38.8452 357.484 40.9176C359.557 42.99 359.557 46.362 357.484 48.4412L336.206 69.7194C335.166 70.759 333.805 71.272 332.437 71.272H332.458H332.465Z" fill="#FCC3B4"/>
<path d="M331.398 69.1441C330.037 69.1441 328.676 68.6243 327.63 67.5915L318.054 58.0159C315.982 55.9435 315.982 52.5716 318.054 50.4923C320.126 48.4199 323.498 48.4199 325.578 50.4923L331.385 56.2992L348.894 38.7897C350.966 36.7172 354.338 36.7172 356.418 38.7897C358.49 40.8621 358.49 44.234 356.418 46.3133L335.14 67.5915C334.1 68.6311 332.739 69.1441 331.371 69.1441H331.391H331.398Z" fill="#EC6626"/>
<path d="M341.632 228.789H14.0259C14.0259 228.789 -24.5156 170.057 26.1799 127.534C26.1799 127.534 62.2454 123.294 74.5431 163.921C86.8409 204.549 143.603 166.192 189.046 200.329C248.421 244.93 289.206 196.786 341.632 228.789Z" fill="#FFDBCF"/>
</svg>
