<svg width="290" height="212" viewBox="0 0 290 212" fill="none" xmlns="http://www.w3.org/2000/svg">
<g clip-path="url(#clip0_1_807)">
<path d="M277.816 143.997C274.278 140.657 272.2 136.069 272.292 131.204C272.292 130.956 272.299 130.708 272.299 130.452C272.299 120.786 268.81 111.936 263.016 105.085C258.109 99.2773 257.697 90.7885 262.321 84.7606C267.342 78.2221 270.328 70.0312 270.328 61.1453C270.328 39.7001 252.946 22.3184 231.501 22.3184H83.0648C61.6196 22.3184 44.2379 39.7001 44.2379 61.1453C44.2379 67.0598 45.564 72.6693 47.9326 77.6902C50.8828 83.9451 46.2377 91.1289 39.3234 91.1289C17.6086 91.1289 0 108.73 0 130.452H0C0 152.167 17.6015 169.776 39.3234 169.776H79.2069C80.5402 169.776 81.5968 170.875 81.5898 172.208V172.229C81.5898 193.675 98.9715 211.056 120.417 211.056H251.159C272.604 211.056 289.986 193.675 289.986 172.229C289.986 161.103 285.305 151.068 277.809 143.99L277.816 143.997Z" fill="white"/>
<path d="M252.987 85.0652C252.987 73.832 247.994 64.166 240.825 59.8259C240.435 55.3298 238.406 51.4293 235.456 48.9898C235.13 48.7203 234.889 48.3728 234.768 47.9757C232.96 42.0967 229.045 37.2743 224.017 34.5724C222.911 33.9767 222.578 32.5513 223.315 31.5301C224.266 30.211 224.797 28.743 224.797 27.1829C224.797 21.9279 218.755 17.6162 211.054 17.1623C210.302 17.1198 209.643 16.6801 209.309 16.0064C204.934 7.17725 195.041 1.01458 183.531 1.01458C178.709 1.01458 174.163 2.0996 170.199 4.00726C169.461 4.36185 168.575 4.22711 167.958 3.68814C165.348 1.39043 162.008 0.0146484 158.363 0.0146484C153.058 0.0146484 148.399 2.94351 145.711 7.36163C145.208 8.18426 144.229 8.5814 143.307 8.29773C140.754 7.49637 138.031 7.06378 135.215 7.06378C122.025 7.06378 111.04 16.4603 108.558 28.9203C108.409 29.665 107.778 30.2181 107.012 30.2181C99.4379 30.2181 92.7362 34.6362 89.6726 41.0613C81.113 43.5576 74.8085 51.9399 74.8085 61.9321C74.8085 64.1447 75.1205 66.2793 75.6949 68.2934C69.1564 72.0165 64.7383 79.0372 64.7383 87.1005C64.7383 90.4478 65.4971 93.6106 66.8516 96.4402C70.6102 104.277 72.2838 112.857 71.8158 121.531C71.7945 121.963 71.7803 122.396 71.7803 122.835C71.7803 135.622 81.6945 145.99 93.9276 145.99H93.956C95.4523 145.99 96.8423 146.777 97.5089 148.124C101.026 155.259 107.799 160.088 115.579 160.088C125.053 160.088 133.031 152.925 135.456 143.16C135.839 143.047 136.229 142.94 136.605 142.813C137.073 142.65 137.584 142.664 138.059 142.827C145.81 145.522 154.171 146.997 162.901 146.997C168.518 146.997 173.978 146.373 179.233 145.217C179.73 145.11 180.233 145.188 180.68 145.43C184.687 147.628 189.509 148.926 194.7 148.997C199.494 152.805 205.373 155.053 211.727 155.053C227.854 155.053 240.924 140.628 240.924 122.835V122.715C240.903 116.212 242.981 109.936 246.888 104.745C250.661 99.7308 253.001 92.7738 253.001 85.0865L252.987 85.0652Z" fill="#09152D"/>
<path d="M211.926 21.6165C211.848 21.496 210.018 18.7089 211.032 16.4396C211.628 15.1134 213.032 14.2837 215.216 13.9717L215.351 14.9432C213.528 15.2056 212.372 15.8439 211.926 16.8367C211.131 18.6025 212.727 21.0421 212.741 21.0634L211.926 21.6094V21.6165Z" fill="#09152D"/>
<path d="M140.385 11.241L139.612 10.6311C140.754 9.17734 141.144 7.92211 140.775 6.89382C140.123 5.06417 137.286 4.41173 137.258 4.40464L137.471 3.44727C137.605 3.47563 140.86 4.22735 141.697 6.56051C142.187 7.92921 141.747 9.50356 140.385 11.2339V11.241Z" fill="#09152D"/>
<path d="M86.0973 46.1888C86.0193 46.0682 84.1897 43.2812 85.2038 41.0119C85.7995 39.6857 87.2036 38.856 89.3879 38.5439L89.5226 39.5155C87.7001 39.7779 86.5441 40.4161 86.0973 41.409C85.3031 43.1748 86.8987 45.6143 86.9129 45.6356L86.0973 46.1817V46.1888Z" fill="#00305B"/>
<path d="M82.3813 49.5789L81.6083 48.969C82.7501 47.5152 83.1401 46.26 82.7714 45.2317C82.1189 43.4021 79.2823 42.7496 79.2539 42.7425L79.4667 41.7852C79.6014 41.8135 82.8565 42.5652 83.6933 44.8984C84.1826 46.2671 83.7429 47.8415 82.3813 49.5718V49.5789Z" fill="#09152D"/>
<path d="M206.515 186.064C206.515 192.943 198.275 202.631 189.332 211.119H251.164C265.922 211.119 278.758 202.886 285.325 190.759L202.359 166.605C201.076 166.236 199.785 165.903 198.487 165.591C198.828 166.647 199.36 167.64 200.09 168.506C204.09 173.25 206.508 179.37 206.508 186.064H206.515Z" fill="#E9660C"/>
<path d="M120.421 211.12H144.249C135.058 202.631 126.598 192.944 126.598 186.065C126.598 179.845 128.683 174.122 132.186 169.541C133.051 168.414 133.612 167.08 133.817 165.69C130.697 166.407 127.612 167.258 124.57 168.279L82.9062 182.306C87.3244 198.894 102.444 211.113 120.421 211.113V211.12Z" fill="#E9660C"/>
<path d="M141.988 139.005L156.674 128.395C157.412 127.864 157.639 126.828 157.135 126.069C153.334 120.261 147.008 120.892 143.264 121.928C141.605 122.389 139.881 122.594 138.172 122.353C135.229 121.935 131.343 123.048 131.343 123.048C136.662 105.319 115.387 82.2712 115.387 82.2712C119.819 81.3847 124.251 78.7253 124.251 78.7253C132.244 79.3423 136.825 75.2646 138.881 72.7116C139.534 71.9031 138.981 70.6905 137.938 70.6479L104.671 69.1728C101.884 69.0523 99.168 70.0522 97.1327 71.9528L76.5598 91.1571C74.7301 92.8591 73.5813 95.1709 73.3189 97.653L65.6953 169.79H79.205C80.5382 169.79 81.5949 170.889 81.5878 172.222V172.243C81.5878 191.533 95.6506 207.524 114.089 210.553L111.316 161.414L141.988 139.012V139.005Z" fill="#FFB996"/>
<path d="M252.787 91.1425L232.214 71.9382C230.179 70.0376 227.456 69.0306 224.676 69.1583L191.409 70.6333C190.366 70.683 189.813 71.8886 190.465 72.697C192.522 75.25 197.103 79.3277 205.096 78.7108C205.096 78.7108 209.528 81.3701 213.96 82.2566C213.96 82.2566 192.685 105.305 198.004 123.034C198.004 123.034 194.118 121.92 191.175 122.339C189.473 122.58 187.742 122.374 186.083 121.913C182.338 120.871 176.02 120.247 172.211 126.055C171.708 126.821 171.935 127.849 172.672 128.381L187.359 138.99L218.031 161.393L215.23 211.056H251.17C256.957 211.056 262.439 209.779 267.368 207.517L256.035 97.6314C255.773 95.1493 254.624 92.8374 252.794 91.1354L252.787 91.1425Z" fill="#FFB996"/>
<path d="M200.094 168.456C199.364 167.591 198.832 166.598 198.492 165.541C198.187 164.598 198.031 163.612 198.031 162.605V139.231C198.031 124.608 186.173 112.751 171.55 112.751H160.324C145.701 112.751 133.844 124.608 133.844 139.231V162.57C133.844 163.052 133.858 163.534 133.886 164.01C133.915 164.556 133.886 165.102 133.801 165.641C133.596 167.031 133.028 168.364 132.17 169.492C128.667 174.073 126.582 179.803 126.582 186.015C126.582 192.894 135.042 202.581 144.233 211.07H189.322C198.265 202.581 206.505 192.894 206.505 186.015C206.505 179.136 204.087 173.2 200.087 168.456H200.094Z" fill="#FFB996"/>
<path d="M165.615 173.427C173.828 173.144 181.586 169.605 187.181 163.598L198.039 151.932V139.231C198.039 124.608 186.181 112.751 171.558 112.751H160.332C145.709 112.751 133.852 124.608 133.852 139.231V162.57C133.852 163.052 133.866 163.534 133.894 164.01C134.008 165.974 133.377 167.924 132.178 169.491C128.675 174.073 126.59 179.803 126.59 186.015C126.59 190.043 129.59 194.022 131.157 197.461L145.461 181.824C150.928 176.668 158.091 173.676 165.608 173.42L165.615 173.427Z" fill="#E38064"/>
<path d="M211.357 98.2196C211.357 93.3405 208.202 89.3125 204.088 88.6388V85.0646C204.088 65.5766 188.288 49.7764 168.8 49.7764H159.446C139.958 49.7764 124.158 65.5766 124.158 85.0646V88.5324C119.478 88.5324 115.684 92.8725 115.684 98.2196C115.684 103.567 119.478 107.907 124.158 107.907V123.296C124.158 132.579 128.86 141.224 136.647 146.273L152.092 156.293C162.134 162.804 175.24 162.045 184.459 154.414L194.153 146.393C200.443 141.188 204.081 133.451 204.081 125.289V107.793C208.187 107.12 211.35 103.092 211.35 98.2125L211.357 98.2196Z" fill="#FFB996"/>
<path d="M125.754 99.4115C126.42 99.4966 127.094 99.5392 127.782 99.5392C135.065 99.5392 141.207 94.6743 143.157 88.0223C143.518 86.7883 144.355 85.7246 145.511 85.1714C147.71 84.1218 149.412 82.2 150.156 79.8456C150.638 78.3279 151.787 77.1082 153.319 76.6685C159.34 74.9381 164.219 70.8817 166.637 65.6693C167.091 64.6906 168.049 64.0807 169.127 64.0807H169.148C176.608 64.0807 182.657 60.4924 182.657 56.0601C182.657 51.6278 176.608 48.0394 169.148 48.0394C167.829 48.0394 166.559 48.1599 165.354 48.3656C162.588 44.1035 158.063 40.8839 152.688 39.501C133.498 44.9687 119.336 63.9105 119.336 86.4479C119.336 92.1213 120.244 97.5677 121.889 102.624C122.009 100.631 123.733 99.1349 125.747 99.3973L125.754 99.4115Z" fill="#F6A07F"/>
<path d="M136.229 145.968L156.454 131.735C158.014 130.636 158.766 128.721 158.369 126.856L156.284 117.034C155.298 113.836 156.986 110.432 160.128 109.276C162.248 108.496 164.822 107.985 167.517 108.439C170.411 108.928 172.567 111.382 172.723 114.318L171.233 126.672C170.985 128.707 171.786 130.735 173.361 132.054L191.948 147.663L210.521 130.778L209.677 92.3408H127.995L124.414 134.997L136.236 145.968H136.229Z" fill="#F6A07F"/>
<path d="M164.931 138.04C168.193 138.04 170.838 135.204 170.838 131.707C170.838 128.209 168.193 125.374 164.931 125.374C161.668 125.374 159.023 128.209 159.023 131.707C159.023 135.204 161.668 138.04 164.931 138.04Z" fill="white"/>
<path d="M169.148 43.827C167.829 43.827 166.559 43.9475 165.354 44.1532C161.616 38.4018 154.695 34.5439 146.773 34.5439C134.888 34.5439 125.25 43.2383 125.25 53.961C125.25 54.5425 125.286 55.1169 125.342 55.6913C121.804 57.2728 119.336 60.8115 119.336 64.9389C119.336 65.18 119.357 65.414 119.371 65.6481C114.797 68.4705 111.741 73.5198 111.741 79.2924C111.741 82.2355 112.549 84.9871 113.932 87.3557C112.967 87.0578 111.953 86.8876 110.897 86.8876C104.833 86.8876 99.9258 92.178 99.9258 98.7095C99.9258 105.241 104.84 110.531 110.897 110.531C116.953 110.531 121.867 105.241 121.867 98.7095V98.6527C121.86 96.5394 123.655 94.9296 125.747 95.1991C126.413 95.2842 127.087 95.3267 127.775 95.3267C135.058 95.3267 141.199 90.4618 143.15 83.8099C143.511 82.5759 144.348 81.5121 145.504 80.959C147.702 79.9094 149.404 77.9876 150.149 75.6331C150.631 74.1155 151.78 72.8958 153.312 72.4561C159.333 70.7257 164.212 66.6693 166.63 61.4569C167.084 60.4782 168.041 59.8683 169.119 59.8683H169.141C176.601 59.8683 182.65 56.2799 182.65 51.8476C182.65 47.4153 176.601 43.827 169.141 43.827H169.148Z" fill="#09152D"/>
<path d="M112.18 51.5285C112.109 51.2377 110.549 44.4013 121.633 36.7281C128.959 31.6576 130.576 29.2606 132.143 26.9487C132.895 25.8282 133.675 24.6794 135.086 23.2681C137.064 21.2895 139.49 21.0697 142.298 20.8215C145.695 20.5165 149.546 20.1691 153.673 16.5027C161.396 9.63791 168.424 13.0277 168.495 13.0632L168.119 13.822C167.849 13.6873 161.517 10.6662 154.233 17.1338C149.9 20.9846 145.901 21.3463 142.376 21.6654C139.731 21.9065 137.44 22.1122 135.682 23.8709C134.334 25.2183 133.611 26.2892 132.845 27.4238C131.235 29.7995 129.576 32.2604 122.115 37.4231C111.556 44.7346 112.981 51.259 112.995 51.3299L112.18 51.5355V51.5285Z" fill="#112147"/>
<path d="M119.356 58.6984C119.285 58.4076 117.724 51.5712 128.809 43.898C136.134 38.8275 137.751 36.4305 139.319 34.1186C140.07 32.9981 140.85 31.8493 142.262 30.438C144.24 28.4595 146.666 28.2396 149.474 27.9914C152.871 27.6865 156.722 27.339 160.849 23.6726C168.572 16.8078 175.6 20.1977 175.671 20.2331L175.295 20.9919C175.025 20.8572 168.692 17.8361 161.409 24.3037C157.076 28.1545 153.076 28.5162 149.552 28.8353C146.907 29.0764 144.616 29.2821 142.857 31.0408C141.51 32.3882 140.787 33.4591 140.021 34.5938C138.411 36.9695 136.751 39.4303 129.291 44.593C118.731 51.9045 120.157 58.4289 120.171 58.4998L119.356 58.7055V58.6984Z" fill="#112147"/>
<path d="M133.312 60.4068C133.256 60.194 132.1 55.1093 140.34 49.4005C145.787 45.6277 146.992 43.8477 148.155 42.1315C148.716 41.3018 149.297 40.4437 150.34 39.3941C151.808 37.9262 153.616 37.7631 155.708 37.5716C158.233 37.3446 161.098 37.0893 164.168 34.3591C169.913 29.253 175.139 31.7777 175.189 31.799L174.912 32.3592C174.714 32.2599 169.998 30.0119 164.587 34.82C161.36 37.685 158.389 37.9545 155.772 38.1886C153.807 38.3659 152.105 38.5219 150.793 39.8267C149.794 40.8267 149.255 41.628 148.68 42.4719C147.489 44.2378 146.248 46.0674 140.702 49.9111C132.852 55.3504 133.915 60.2011 133.922 60.2508L133.312 60.3997V60.4068Z" fill="#112147"/>
<path d="M231.193 81.0369L230.364 80.8951C231.207 75.8529 229.08 74.4133 226.619 72.7467C224.414 71.2575 221.917 69.5626 221.917 64.9246C221.917 60.2866 219.031 58.6556 215.967 56.7621C212.883 54.8473 209.691 52.8687 209.259 48.0819C208.925 44.4013 207.067 41.7915 203.727 40.3165C201.195 39.196 198.728 39.1818 198.699 39.1818V38.3379C198.806 38.3379 209.223 38.4514 210.096 48.0109C210.493 52.3794 213.365 54.1594 216.414 56.0529C219.535 57.9889 222.761 59.9888 222.761 64.9388C222.761 69.13 224.868 70.5554 227.094 72.0659C229.569 73.7396 232.129 75.4699 231.2 81.0511L231.193 81.0369Z" fill="#112147"/>
<path d="M234.568 71.7537L233.739 71.6119C234.582 66.5697 232.455 65.1301 229.994 63.4635C227.789 61.9743 225.292 60.2794 225.292 55.6414C225.292 51.0034 222.406 49.3723 219.342 47.4789C216.258 45.5641 213.066 43.5855 212.634 38.7987C212.3 35.1181 210.442 32.5083 207.102 31.0333C204.57 29.9128 202.103 29.8986 202.074 29.8986V29.0547C202.181 29.0547 212.598 29.1682 213.471 38.7277C213.868 43.0962 216.74 44.8762 219.789 46.7697C222.91 48.7057 226.136 50.7056 226.136 55.6556C226.136 59.8468 228.242 61.2722 230.469 62.7827C232.944 64.4563 235.504 66.1867 234.575 71.7679L234.568 71.7537Z" fill="#112147"/>
<path d="M82.1992 89.4119L102.361 70.5551L142.152 65.3711C144.088 65.1158 145.656 66.988 145.017 68.8319C144.152 71.3281 141.94 74.2074 136.351 74.8031L113.438 81.8167L82.2063 89.4119H82.1992Z" fill="#F6A07F"/>
<path d="M94.1719 91.9433L111.554 75.6891L145.225 71.2994C147.303 71.0299 148.891 73.1787 147.969 75.058C147.047 76.9373 145.04 78.8946 140.856 79.3484L121.099 85.3905L94.1719 91.9433Z" fill="#F6A07F"/>
<path d="M87.2695 106.297C87.2695 106.297 96.5525 132.465 91.4891 149.35C91.4891 149.35 91.4891 125.714 87.2695 106.297Z" fill="#E38064"/>
<path d="M110.905 161.165C110.905 161.165 101.622 167.072 90.6445 162.853C90.6445 162.853 104.154 169.604 110.905 161.165Z" fill="#E38064"/>
<path d="M99.9297 133.309C99.9297 133.309 106.468 146.394 128.403 140.366C129.211 140.146 129.998 139.841 130.757 139.472C134.7 137.572 146.295 131.182 145.175 122.183L99.9297 133.309Z" fill="#E38064"/>
<path d="M247.143 89.412L226.982 70.5552L187.176 65.3712C185.247 65.1159 183.687 66.981 184.318 68.8249C185.176 71.3211 187.396 74.2074 192.991 74.8102L215.904 81.8239L247.136 89.4191L247.143 89.412Z" fill="#F6A07F"/>
<path d="M235.179 91.9433L217.798 75.6892L184.112 71.2994C182.041 71.03 180.46 73.1716 181.375 75.0509C182.29 76.9302 184.304 78.9017 188.495 79.3556L208.252 85.3977L235.179 91.9504V91.9433Z" fill="#F6A07F"/>
<path d="M242.078 106.297C242.078 106.297 232.795 132.465 237.859 149.35C237.859 149.35 237.859 125.714 242.078 106.297Z" fill="#E38064"/>
<path d="M218.441 161.166C218.441 161.166 227.724 167.073 238.702 162.854C238.702 162.854 225.193 169.605 218.441 161.166Z" fill="#E38064"/>
<path d="M229.422 133.309C229.422 133.309 222.884 146.394 200.949 140.366C200.141 140.146 199.354 139.841 198.595 139.472C194.652 137.572 183.057 131.182 184.177 122.183L229.422 133.309Z" fill="#E38064"/>
<path d="M156.168 77.1795L130.609 82.6542L139.048 114.73L157.997 107.028C162.082 105.369 166.656 105.369 170.748 107.028L189.697 114.73L198.136 82.6542L172.578 77.1795C167.167 76.0235 161.572 76.0235 156.161 77.1795H156.168Z" fill="#112147"/>
<path d="M158.161 79.9378L138.801 84.0865L145.197 108.39L159.551 102.56C162.65 101.305 166.111 101.305 169.21 102.56L183.563 108.39L189.96 84.0865L170.6 79.9378C166.501 79.0585 162.26 79.0585 158.168 79.9378H158.161Z" fill="#004A80"/>
<path d="M164.372 98.6957C168.802 98.6957 172.393 95.1047 172.393 90.675C172.393 86.2453 168.802 82.6543 164.372 82.6543C159.943 82.6543 156.352 86.2453 156.352 90.675C156.352 95.1047 159.943 98.6957 164.372 98.6957Z" fill="#112147"/>
<path d="M151.23 116.729C152.57 116.332 153.634 115.297 154.024 113.956C155.74 108.042 155.847 101.581 153.967 95.2343C152.088 88.8872 148.493 83.5188 143.833 79.4908C142.777 78.5759 141.316 78.2852 139.975 78.6823L133.969 80.4552C139.486 84.6039 143.762 90.4971 145.869 97.6242C147.975 104.751 147.585 112.02 145.216 118.502L151.223 116.729H151.23Z" fill="#112147"/>
<path d="M177.52 115.885C176.18 115.488 175.116 114.453 174.726 113.113C173.01 107.198 172.904 100.738 174.783 94.3905C176.662 88.0435 180.258 82.6751 184.917 78.647C185.974 77.7322 187.435 77.4414 188.775 77.8386L194.782 79.6115C189.264 83.7601 184.988 89.6533 182.882 96.7804C180.775 103.908 181.165 111.177 183.534 117.658L177.527 115.885H177.52Z" fill="#112147"/>
<path d="M117.255 140.047C135.671 140.047 150.6 125.118 150.6 106.702C150.6 88.2855 135.671 73.3564 117.255 73.3564C98.8393 73.3564 83.9102 88.2855 83.9102 106.702C83.9102 125.118 98.8393 140.047 117.255 140.047Z" fill="#112147"/>
<path d="M117.254 134.983C132.874 134.983 145.536 122.321 145.536 106.702C145.536 91.082 132.874 78.4199 117.254 78.4199C101.635 78.4199 88.9727 91.082 88.9727 106.702C88.9727 122.321 101.635 134.983 117.254 134.983Z" fill="#FFF0E9"/>
<path d="M139.597 89.3699C138.59 88.0722 137.469 86.8595 136.242 85.7461C127.108 93.0789 94.0469 120.219 94.0469 120.219L139.597 89.3699Z" fill="#FFD9CD"/>
<path d="M89.1741 103.404C89.0961 104.078 89.0394 104.751 89.0039 105.425C95.2446 100.709 108.974 90.1143 108.974 90.1143L89.1741 103.404Z" fill="#FFD9CD"/>
<path d="M101.554 130.224C103.795 131.72 106.284 132.912 108.979 133.735L145.515 105.595C145.466 104.233 145.31 102.879 145.061 101.56L101.547 130.224H101.554Z" fill="#FFD9CD"/>
<path d="M211.497 139.203C229.913 139.203 244.842 124.274 244.842 105.858C244.842 87.4418 229.913 72.5127 211.497 72.5127C193.081 72.5127 178.152 87.4418 178.152 105.858C178.152 124.274 193.081 139.203 211.497 139.203Z" fill="#112147"/>
<path d="M211.496 134.139C227.116 134.139 239.778 121.477 239.778 105.858C239.778 90.2383 227.116 77.5762 211.496 77.5762C195.877 77.5762 183.215 90.2383 183.215 105.858C183.215 121.477 195.877 134.139 211.496 134.139Z" fill="#FFF0E9"/>
<path d="M189.152 88.5262C190.159 87.2284 191.28 86.0157 192.507 84.9023C201.641 92.2351 234.702 119.375 234.702 119.375L189.152 88.5262Z" fill="#FFD9CD"/>
<path d="M239.581 102.553C239.659 103.227 239.716 103.901 239.751 104.575C233.511 99.8586 219.781 89.2637 219.781 89.2637L239.581 102.553Z" fill="#FFD9CD"/>
<path d="M227.2 129.38C224.959 130.877 222.469 132.068 219.775 132.891L183.238 104.751C183.288 103.389 183.444 102.035 183.692 100.716L227.207 129.38H227.2Z" fill="#FFD9CD"/>
<path d="M218.926 123.226C221.131 123.226 222.919 119.368 222.919 114.61C222.919 109.851 221.131 105.993 218.926 105.993C216.721 105.993 214.934 109.851 214.934 114.61C214.934 119.368 216.721 123.226 218.926 123.226Z" fill="#112147"/>
<path d="M130.004 123.226C132.209 123.226 133.997 119.368 133.997 114.61C133.997 109.851 132.209 105.993 130.004 105.993C127.799 105.993 126.012 109.851 126.012 114.61C126.012 119.368 127.799 123.226 130.004 123.226Z" fill="#112147"/>
<path d="M161.447 113.737C161.447 111.312 163.1 109.276 165.334 108.674C164.901 108.56 164.447 108.489 163.979 108.489C161.086 108.489 158.738 110.837 158.738 113.73C158.738 116.623 161.086 118.971 163.979 118.971C164.447 118.971 164.901 118.9 165.334 118.786C163.1 118.191 161.447 116.155 161.447 113.723V113.737Z" fill="#E38064"/>
</g>
<defs>
<clipPath id="clip0_1_807">
<rect width="290" height="211.119" fill="white"/>
</clipPath>
</defs>
</svg>
