<svg width="410" height="304" viewBox="0 0 410 304" fill="none" xmlns="http://www.w3.org/2000/svg">
<path fill-rule="evenodd" clip-rule="evenodd" d="M357.157 30.063C346.058 29.4209 320.131 24.9865 288 0C255.869 24.9865 229.942 29.4209 218.843 30.063H213V116.175C213 157.597 288 202.638 288 202.638C288 202.638 363 157.597 363 116.175V30.063H357.157Z" fill="#A4C3D2"/>
<path fill-rule="evenodd" clip-rule="evenodd" d="M288.001 183.236C261.307 165.385 229.375 136.113 229.375 116.177V45.336C243.291 43.0653 263.911 36.791 288.001 20.2793C312.092 36.7917 332.709 43.0653 346.626 45.336V116.177C346.626 136.113 314.695 165.385 288.001 183.236Z" fill="#024A80"/>
<path fill-rule="evenodd" clip-rule="evenodd" d="M283.232 134.977L250.109 102.511L263.288 89.0645L282.042 107.446L314.398 69.7246L328.688 81.9832L283.232 134.977Z" fill="white"/>
<path d="M218.909 303.355C318.007 303.355 398.341 300.632 398.341 297.274C398.341 293.916 318.007 291.193 218.909 291.193C119.811 291.193 39.4766 293.916 39.4766 297.274C39.4766 300.632 119.811 303.355 218.909 303.355Z" fill="#FDDBCE"/>
<path d="M34.2424 212.975L54.3346 196.535L349.868 200.187L384.203 252.061L369.584 276.172L358.994 270.332L301.637 265.947L288.483 273.252L285.688 274.514L257.068 257.91L97.7953 268.867L83.5526 259.741L23.6422 252.437L17.0701 255.723L11.9531 253.169C11.9531 253.169 15.6054 249.883 14.1406 238.926C12.6759 227.97 34.2328 212.994 34.2328 212.994L34.2424 212.975Z" fill="#111111"/>
<path d="M24.8659 164.753L48.2441 149.171L77.9535 150.395L89.1608 163.79L303.959 171.094C312.488 171.826 328.311 176.211 328.311 176.211C328.311 176.211 325.381 174.987 357.654 183.641C389.927 192.285 402.589 205.68 406 209.332C406.752 210.141 407.369 210.999 407.87 211.847C409.354 214.352 410.019 217.243 410 220.154C409.932 227.516 409.691 249.256 409.296 250.383C408.805 251.723 404.179 256.956 404.179 256.956L407.292 264.019C407.851 265.282 407.639 266.766 406.752 267.826L404.526 270.485C403.668 271.507 402.502 272.22 401.201 272.528L392.182 274.61C390.765 274.937 389.32 275.14 387.874 275.217L369.603 276.19C379.105 226.88 333.322 225.897 333.322 225.897C297.763 223.584 290.825 260.116 290.825 260.116C289.485 260.357 288.878 262.429 288.878 262.429L284.86 274.725L97.8241 268.886C98.1902 222.852 60.6849 221.271 60.6849 221.271C24.6442 218.101 19.7681 248.784 19.7681 248.784H18.3034C16.3568 250.008 13.4273 259.741 13.4273 259.741C10.8736 259.23 8.98485 258.44 7.77065 257.823C6.74918 257.303 5.93971 256.474 5.41933 255.452L3.55949 251.877C3.20294 251.193 2.75001 250.557 2.22 249.979C1.41053 249.083 0.196336 247.541 0.0325151 246.105C-0.131306 244.64 0.36016 242.212 0.697438 240.747C0.899806 239.87 1.01543 238.974 1.01543 238.068L1.21779 218.814C1.22743 217.224 1.58398 215.644 2.23926 214.189L5.88187 206.132C6.67207 204.379 7.15391 202.5 7.28883 200.572L7.75136 194C7.79954 193.335 7.89591 192.68 8.05009 192.025L11.7216 176.201C11.5096 174.708 11.5771 173.59 11.7216 172.8C11.8758 171.942 12.4058 171.21 13.1478 170.747L17.3301 168.165C19.0357 166.941 24.8755 164.753 24.8755 164.753H24.8659Z" fill="#EC6626"/>
<path d="M390.145 209.311L395.204 208.608C396.756 208.396 398.028 207.336 398.48 205.9C398.876 204.638 398.933 203.481 398.654 202.46L398.23 202.576C398.49 203.51 398.423 204.59 398.056 205.775C397.652 207.047 396.515 207.991 395.137 208.184L390.174 208.868L373.04 203.414C371.325 202.865 369.291 202.18 367.335 201.265C359.289 197.526 337.24 194.606 330.678 193.797C329.088 193.604 327.507 193.267 325.975 192.804L320.685 191.214C319.345 190.809 318.102 190.173 317.004 189.296L313.457 186.492L313.188 186.829L316.734 189.634C317.871 190.54 319.162 191.204 320.559 191.628L325.85 193.218C327.401 193.691 329.011 194.028 330.62 194.221C337.173 195.021 359.163 197.931 367.152 201.65C369.137 202.576 371.171 203.26 372.915 203.819L390.097 209.283H390.145V209.311Z" fill="#D45027"/>
<path d="M54.9029 133.712L132.352 129.877L254.543 134.628C267.88 141.383 307.881 172.615 307.881 172.615L310.069 172.798C313.721 173.338 331.982 174.802 331.259 179.736C330.527 184.67 313.355 186.675 313.355 186.675L262.58 187.407L96.1858 176.084C89.421 175.901 86.1349 171.15 86.1349 171.15L79.1966 158.179C77.7319 154.527 74.2627 154.527 74.2627 154.527H58.9213C56.7338 154.527 54.3536 156.715 54.3536 156.715C54.3536 156.715 39.735 168.047 37.3644 170.235C34.9938 172.422 28.0459 172.239 28.0459 172.239C19.8259 172.788 21.1076 168.038 21.1076 168.038C21.6569 166.756 24.7598 164.019 24.7598 164.019C24.7598 164.019 44.3027 142.096 47.0395 139.909C49.7763 137.721 54.8933 133.693 54.8933 133.693L54.9029 133.712Z" fill="#132147"/>
<path d="M151.572 143.686L152.69 165.329L107.89 163.778L106.801 145.054L151.572 143.686Z" fill="#FFF1EB"/>
<path d="M106.807 145.215L107.896 163.775L152.696 165.326L153.13 173.527C150.017 174.991 95.5225 170.356 95.5225 170.356C93.3351 163.784 93.8651 145.706 93.8651 145.706L106.807 145.234V145.215Z" fill="#FEE5DA"/>
<path d="M257.669 173.173L258.912 181.451L176.539 175.813C174.708 173.076 168.676 143.348 168.676 143.348L180.471 143.521L187.785 167.69L257.669 173.182V173.173Z" fill="#FEE5DA"/>
<path d="M257.658 173.173L187.773 167.68L180.633 143.348L224.479 144.735C227.534 144.832 230.463 145.892 232.882 147.752L253.957 164.028C256.511 165.676 257.06 169.328 257.06 169.328L257.658 173.182V173.173Z" fill="#FFF1EB"/>
<path d="M54.4385 128.645C60.3938 127.296 81.0546 124.145 149.329 121.639C238.824 118.353 254.531 134.793 254.531 134.793C256.362 137.723 250.147 139.91 250.147 139.91C242.476 143.196 231.153 142.464 231.153 142.464C201.559 140.276 159.554 140.999 159.554 140.999C144.935 141.365 62.1959 145.018 62.1959 145.018C60.1915 145.201 57.9943 144.285 57.9943 144.285C51.4222 141.915 50.873 136.798 50.873 136.798C50.449 135.102 50.449 133.714 50.632 132.615C50.9597 130.64 52.4822 129.088 54.4385 128.645Z" fill="#EC6626"/>
<path d="M249.595 142.838C251.397 142.539 257.276 141.123 258.991 137.162C272.896 145.681 299.195 165.898 306.142 171.275C307.28 172.152 308.619 172.673 310.055 172.788C310.826 172.904 312.223 173.058 313.967 173.27C313.505 174.504 313.1 175.496 312.801 176.074C311.154 179.177 306.403 181.182 299.464 182.647C292.516 184.102 288.325 179.9 288.325 179.9L248.651 147.271C247.495 146.317 247.263 144.515 248.333 143.464C248.651 143.146 249.065 142.905 249.605 142.819L249.595 142.838Z" fill="#FFF1EB"/>
<path d="M31.6901 165.105C29.3195 168.035 26.5827 168.035 23.8363 166.753C23.3834 166.541 23.0269 166.271 22.6992 165.982C23.6918 164.951 24.7422 164.016 24.7422 164.016C24.7422 164.016 44.285 142.093 47.0218 139.905C47.3784 139.616 47.7735 139.308 48.1879 138.971C48.7564 140.233 49.2768 141.361 49.5755 141.91C50.491 143.558 49.0262 145.562 49.0262 145.562L31.6805 165.105H31.6901Z" fill="#FFF1EB"/>
<path d="M65.4639 147.214L88.0905 146.193C89.0059 146.154 89.7865 146.867 89.8251 147.783L90.49 165.293C89.5745 165.293 88.4856 164.56 88.4856 164.56L82.8289 155.791C81.3642 152.148 76.7964 151.589 76.7964 151.589C76.7964 151.589 69.8582 150.857 67.4779 150.308C65.1074 149.768 65.4735 147.205 65.4735 147.205L65.4639 147.214Z" fill="#111111"/>
<path d="M360.515 205.95C359.869 205.189 360.187 204.013 361.122 203.676C368.792 200.91 377.523 202.992 377.523 202.992C390.205 206.027 399.87 212.994 404.13 216.492C405.594 217.697 406.172 219.653 405.594 221.455L404.833 223.864C404.226 225.782 402.434 227.054 400.429 226.996C397.259 226.9 392.73 226.755 390.918 226.601C387.988 226.36 385.56 224.414 385.56 224.414C382.139 220.415 371.144 214.199 366.489 211.665C365.063 210.894 363.81 209.853 362.76 208.61L360.515 205.931V205.95Z" fill="#FFF1EB"/>
<path d="M388.043 241.651C389.324 239.463 390.972 239.646 390.972 239.646H409.734C409.619 245.255 409.474 249.861 409.291 250.362C408.954 251.297 406.593 254.13 405.196 255.759C404.569 256.491 404.425 257.512 404.81 258.389L407.287 264.008C407.663 264.875 407.663 265.829 407.354 266.686H393.882C391.329 266.137 389.315 262.851 389.315 262.851C388.071 260.375 386.732 252.415 386.144 248.628C385.932 247.221 386.096 245.794 386.645 244.484C387.011 243.607 387.493 242.585 388.033 241.66L388.043 241.651Z" fill="#F48220"/>
<path d="M401.748 254.995C401.748 254.995 401.988 256.219 403.328 256.46H404.793C404.542 257.067 404.532 257.761 404.812 258.397L406.691 262.666H390.396C390.396 262.666 389.837 262.647 389.085 262.348C387.909 259.447 386.695 252.191 386.136 248.626C385.924 247.219 386.088 245.792 386.637 244.482C386.637 244.482 386.647 244.463 386.647 244.453C388.237 243.412 389.442 242.632 391.032 241.591H396.737C396.737 241.591 399.416 241.466 399.666 243.171L401.738 254.986L401.748 254.995Z" fill="#151A21"/>
<path d="M396.943 254.501C397.41 251.159 397.156 248.362 396.376 248.253C395.596 248.144 394.585 250.765 394.118 254.106C393.652 257.448 393.906 260.246 394.686 260.354C395.466 260.463 396.477 257.843 396.943 254.501Z" fill="#171116"/>
<path d="M13.6707 260.587C13.5454 256.877 17.8144 248.956 17.8144 248.956H19.2791C22.2954 234.251 31.5176 228.314 31.5176 228.314L30.7852 230.136C16.5424 242.018 19.6453 267.159 19.6453 267.159C19.6453 267.159 18.4311 267.4 17.4578 266.677C16.4845 265.945 13.69 260.587 13.69 260.587H13.6707Z" fill="#161A1F"/>
<path d="M291.245 258.996C291.245 263.14 290.638 277.19 290.532 279.772C290.532 279.965 290.32 280.071 290.156 279.965C288.807 279.088 287.246 277.363 286.388 276.371C285.945 275.85 285.685 275.185 285.704 274.501C285.839 269.008 291.235 258.986 291.235 258.986L291.245 258.996Z" fill="#161A1F"/>
<path d="M270.848 181.307L265.972 184.593C265.548 185.219 265.307 185.768 265.191 186.221C264.892 187.445 265.866 188.611 267.128 188.611H271.079C273.141 188.37 272.419 185.932 272.419 185.932L270.838 181.307H270.848Z" fill="#161A1F"/>
<path d="M90.6346 226.609L109.493 233.23C114.928 235.138 120.556 236.381 126.29 236.92C156.799 239.792 258.069 249.294 264.275 249.506C268.824 249.66 272.62 252.455 274.837 254.546C275.666 255.326 275.068 256.714 273.931 256.646C252.808 255.442 127.359 248.272 118.879 248.051C109.628 247.81 101.832 239.532 101.832 239.532L90.625 226.619L90.6346 226.609Z" fill="#D45027"/>
<path d="M259.664 172.281C260.165 172.04 260.743 171.953 261.283 172.05C270.746 173.707 273.396 179.479 273.396 179.479L272.172 183.141C271.777 184.327 270.997 185.329 269.956 185.994L268.481 186.948C267.161 187.796 265.61 188.2 264.049 188.104L256.59 187.641C254.528 187.16 254.402 185.203 254.402 185.203L254.615 177.86C254.634 177.215 254.827 176.579 255.173 176.029C256.417 174.064 258.508 172.859 259.664 172.3V172.281Z" fill="#EC6626"/>
<path d="M255.511 182.283C259.404 182.524 265.378 183.989 265.378 183.989L264.405 185.695L256.494 185.251C256.002 185.222 255.597 184.847 255.52 184.365C255.366 183.372 255.511 182.293 255.511 182.293V182.283Z" fill="#F4F6FB"/>
<path d="M183.193 194.705L175.147 194.368C173.653 194.31 172.41 195.505 172.41 196.989C172.41 198.376 173.489 199.523 174.877 199.61L183.001 200.101C185.101 203.387 188.937 203.667 188.937 203.667C195.056 204.033 199.71 200.564 199.71 200.564C201.079 199.562 200.346 197.461 200.346 197.461C200.346 197.461 198.246 194.531 192.223 193.346C186.19 192.161 183.184 194.714 183.184 194.714L183.193 194.705Z" fill="#DA5426"/>
<path d="M179.002 195.008V199.441L175.533 199.161C174.405 199.065 173.538 198.111 173.567 196.974C173.596 195.779 174.598 194.834 175.793 194.883L179.002 195.018V195.008Z" fill="#151A21"/>
<path d="M197.66 196.924C198.469 197.02 199.067 197.714 199.048 198.533C199.019 199.41 198.296 200.085 197.429 200.056L183.475 199.767C182.81 199.748 182.145 199.719 181.48 199.661L179.273 199.487V195.045L181.48 195.132C182.319 195.161 183.157 195.228 183.995 195.324L197.66 196.924Z" fill="#151A21"/>
<path d="M94.4105 123.238C94.5454 123.238 94.69 123.209 94.8152 123.142C95.2393 122.92 95.3935 122.39 95.1718 121.976C92.0207 116.068 80.1774 110.508 79.6763 110.277C79.2426 110.074 78.7319 110.267 78.5295 110.701C78.3368 111.134 78.5199 111.645 78.9535 111.848C79.0692 111.896 90.7775 117.398 93.6492 122.795C93.8034 123.093 94.1022 123.257 94.4105 123.257V123.238Z" fill="#132147"/>
<path d="M92.9276 124.817L102.179 124.692C102.179 124.692 101.331 121.522 97.4279 121.281C93.5347 121.04 92.918 124.808 92.918 124.808L92.9276 124.817Z" fill="#132147"/>
<path d="M331.242 301.185C350.103 301.185 365.394 285.894 365.394 267.033C365.394 248.171 350.103 232.881 331.242 232.881C312.38 232.881 297.09 248.171 297.09 267.033C297.09 285.894 312.38 301.185 331.242 301.185Z" fill="#161A1F"/>
<path d="M354.855 267.035C354.855 253.987 344.284 243.406 331.226 243.406C318.179 243.406 307.598 253.978 307.598 267.035C307.598 280.083 318.169 290.664 331.226 290.664C344.284 290.664 354.855 280.093 354.855 267.035ZM345.961 257.553C347.001 259.249 347.763 261.109 348.196 263.113L338.695 266.563L336.96 262.332C338.223 261.051 344.13 258.362 345.951 257.553H345.961ZM312.638 266.678C312.666 264.636 313.042 262.67 313.698 260.839L322.823 263.026L321.937 267.507C320.385 267.835 315.172 267.074 312.628 266.669L312.638 266.678ZM315.22 257.668C317.08 254.594 319.817 252.118 323.093 250.595C323.681 251.183 323.932 252.513 323.932 252.513L324.703 259.567C324.77 260.174 324.211 260.665 323.623 260.521C321.59 260.01 317.658 259.017 316.984 258.815C316.319 258.613 315.577 257.996 315.211 257.659L315.22 257.668ZM334.975 262.198C334.975 263.306 334.079 264.202 332.971 264.202C331.862 264.202 330.966 263.306 330.966 262.198C330.966 261.089 331.862 260.193 332.971 260.193C334.079 260.193 334.975 261.089 334.975 262.198ZM332.238 258.642L327.671 258.825C326.986 257.37 326.495 251.992 326.302 249.468C327.69 249.13 329.126 248.928 330.619 248.928C331.159 248.928 331.699 248.957 332.229 249.005V258.642H332.238ZM328.673 270.514C329.781 270.514 330.677 271.41 330.677 272.518C330.677 273.626 329.781 274.523 328.673 274.523C327.565 274.523 326.668 273.626 326.668 272.518C326.668 271.41 327.565 270.514 328.673 270.514ZM327.121 264.395C327.68 265.349 327.353 266.582 326.389 267.141C325.435 267.7 324.201 267.372 323.643 266.409C323.084 265.455 323.411 264.221 324.375 263.662C325.329 263.103 326.562 263.431 327.121 264.395ZM312.772 269.165C313.524 268.856 314.758 269.011 314.758 269.011L321.715 270.456C322.322 270.581 322.611 271.256 322.284 271.776C321.166 273.549 319.007 276.98 318.612 277.558C318.265 278.059 317.581 278.522 317.128 278.801C314.796 276.161 313.235 272.836 312.782 269.165H312.772ZM318.998 280.651L324.433 273.27L328.22 275.824C327.94 277.288 325.502 281.374 324.086 283.668C322.226 282.935 320.501 281.914 318.998 280.642V280.651ZM326.668 284.458C326.639 283.639 327.237 282.54 327.237 282.54L331.063 276.556C331.39 276.045 332.132 276.016 332.498 276.498C333.761 278.175 336.209 281.413 336.594 281.991C336.902 282.444 337.085 283.138 337.191 283.648C335.149 284.448 332.932 284.911 330.61 284.911C329.261 284.911 327.94 284.747 326.678 284.468L326.668 284.458ZM333.963 269.406C333.963 268.297 334.859 267.401 335.968 267.401C337.076 267.401 337.972 268.297 337.972 269.406C337.972 270.514 337.076 271.41 335.968 271.41C334.859 271.41 333.963 270.514 333.963 269.406ZM344.467 255.423C344.082 256.175 342.79 256.791 342.79 256.791L336.18 259.374C335.611 259.596 334.994 259.191 334.985 258.584C334.956 256.483 334.888 252.436 334.917 251.732C334.937 251 335.389 250.046 335.601 249.641C339.109 250.663 342.183 252.696 344.467 255.442V255.423ZM339.861 282.319L334.734 275.226L338.329 272.403C339.591 273.087 342.559 276.44 344.342 278.512C343.07 280.015 341.557 281.297 339.851 282.319H339.861ZM345.874 276.392C345.161 276.103 344.457 275.448 344.457 275.448L339.668 270.205C339.263 269.753 339.417 269.03 339.986 268.799C341.923 268.008 345.691 266.495 346.346 266.264C347.05 266.023 348.119 266.11 348.563 266.158C348.572 266.409 348.601 266.65 348.601 266.91C348.601 270.389 347.599 273.636 345.884 276.392H345.874Z" fill="#FFF1EB"/>
<path d="M57.9722 299.728C76.8338 299.728 92.1241 284.437 92.1241 265.576C92.1241 246.714 76.8338 231.424 57.9722 231.424C39.1106 231.424 23.8203 246.714 23.8203 265.576C23.8203 284.437 39.1106 299.728 57.9722 299.728Z" fill="#161A1F"/>
<path d="M81.6208 265.578C81.6208 252.53 71.0496 241.949 57.9921 241.949C44.9442 241.949 34.3633 252.53 34.3633 265.578C34.3633 278.626 44.9442 289.207 57.9921 289.207C71.0399 289.207 81.6208 278.636 81.6208 265.578ZM72.7263 256.096C73.7671 257.792 74.5283 259.652 74.962 261.656L65.4604 265.106L63.7258 260.875C64.9882 259.594 70.8954 256.905 72.7167 256.096H72.7263ZM39.4032 265.221C39.4321 263.179 39.8079 261.213 40.4632 259.382L49.589 261.569L48.7024 266.05C47.1509 266.378 41.9376 265.617 39.3935 265.212L39.4032 265.221ZM41.9858 256.211C43.8456 253.137 46.5824 250.661 49.8588 249.138C50.4466 249.726 50.6972 251.056 50.6972 251.056L51.4681 258.11C51.5356 258.717 50.9766 259.208 50.3888 259.064C48.3555 258.553 44.4238 257.56 43.7493 257.358C43.0843 257.156 42.3423 256.539 41.9761 256.202L41.9858 256.211ZM61.7406 260.74C61.7406 261.849 60.8445 262.745 59.7363 262.745C58.6281 262.745 57.7319 261.849 57.7319 260.74C57.7319 259.632 58.6281 258.736 59.7363 258.736C60.8445 258.736 61.7406 259.632 61.7406 260.74ZM59.0039 257.185L54.4362 257.368C53.752 255.913 53.2605 250.535 53.0678 248.011C54.4554 247.673 55.8913 247.471 57.3849 247.471C57.9246 247.471 58.4642 247.5 58.9943 247.548V257.185H59.0039ZM55.4384 269.057C56.5466 269.057 57.4428 269.953 57.4428 271.061C57.4428 272.169 56.5466 273.066 55.4384 273.066C54.3302 273.066 53.434 272.169 53.434 271.061C53.434 269.953 54.3302 269.057 55.4384 269.057ZM53.1545 265.674C52.2005 266.233 50.967 265.906 50.4081 264.942C49.8492 263.988 50.1768 262.755 51.1405 262.196C52.0945 261.637 53.328 261.964 53.8869 262.928C54.4458 263.882 54.1182 265.115 53.1545 265.674ZM39.5477 267.698C40.2994 267.39 41.5328 267.544 41.5328 267.544L48.4904 268.989C49.0975 269.115 49.3866 269.789 49.059 270.31C47.9412 272.083 45.7825 275.513 45.3874 276.091C45.0405 276.593 44.3564 277.055 43.9034 277.335C41.5714 274.694 40.0103 271.37 39.5574 267.698H39.5477ZM50.8514 282.211C48.9915 281.478 47.2666 280.457 45.7633 279.185L51.1983 271.803L54.9855 274.357C54.706 275.822 52.2679 279.908 50.8514 282.201V282.211ZM53.4436 283.001C53.4147 282.182 54.0122 281.083 54.0122 281.083L57.8379 275.099C58.1655 274.588 58.9075 274.559 59.2737 275.041C60.5361 276.718 62.9838 279.956 63.3692 280.534C63.6776 280.987 63.8607 281.681 63.9667 282.191C61.9237 282.991 59.7073 283.454 57.3849 283.454C56.0358 283.454 54.7156 283.29 53.4533 283.011L53.4436 283.001ZM60.7385 267.949C60.7385 266.84 61.6347 265.944 62.7429 265.944C63.8511 265.944 64.7473 266.84 64.7473 267.949C64.7473 269.057 63.8511 269.953 62.7429 269.953C61.6347 269.953 60.7385 269.057 60.7385 267.949ZM71.2423 253.966C70.8568 254.718 69.5655 255.334 69.5655 255.334L62.9549 257.917C62.3863 258.139 61.7696 257.734 61.7599 257.127C61.731 255.026 61.6636 250.979 61.6925 250.275C61.7117 249.543 62.1647 248.589 62.3767 248.184C65.8844 249.206 68.9584 251.239 71.2423 253.985V253.966ZM71.1266 277.055C69.8546 278.558 68.3417 279.84 66.636 280.862L61.5094 273.769L65.1038 270.946C66.3662 271.63 69.3342 274.983 71.117 277.055H71.1266ZM72.6589 274.925C71.9458 274.636 71.2423 273.981 71.2423 273.981L66.4529 268.739C66.0482 268.286 66.2024 267.563 66.7709 267.332C68.7079 266.542 72.4757 265.029 73.131 264.797C73.8345 264.557 74.9042 264.643 75.3475 264.691C75.3571 264.942 75.386 265.183 75.386 265.443C75.386 268.922 74.3838 272.169 72.6685 274.925H72.6589Z" fill="#FFF1EB"/>
<path d="M286.902 199.833C287.259 233.792 280.87 260.977 280.812 261.237C279.704 268.108 273.382 268.474 272.062 268.474H271.821L116.692 262.384C107.904 261.902 103.644 254.318 103.606 254.241C103.49 254.029 92.8513 233.522 88.0619 229.456C83.234 225.36 77.6352 219.752 77.5773 219.704C70.745 209.662 65.098 193.116 62.978 186.477C62.2745 184.27 62.3902 181.89 63.3056 179.77L74.06 154.715H74.5226L63.6911 179.943C62.8142 181.977 62.7082 184.251 63.3731 186.352C65.4739 192.982 71.1209 209.47 77.8857 219.434C77.9146 219.463 83.5134 225.042 88.3221 229.128C93.1693 233.243 103.519 253.191 103.962 254.039C103.991 254.106 108.144 261.488 116.692 261.96L171.293 264.109L171.697 264.157V264.128L271.821 268.06C272.139 268.069 279.203 268.436 280.369 261.179C280.436 260.89 286.815 233.763 286.459 199.843C286.459 199.766 286.758 193.637 281.409 187.932L281.361 187.865L281.101 187.18H281.564L281.756 187.662C287.211 193.502 286.902 199.785 286.902 199.852H286.912L286.902 199.833Z" fill="#D45027"/>
<path d="M78.9893 144.378C78.8255 144.388 78.652 144.398 78.4882 144.407C78.9411 143.376 79.5289 142.499 80.2613 141.796C84.3954 137.835 89.7437 138.047 89.7822 138.047L159.541 135.301C225.349 134.221 234.407 141.083 234.754 141.381C235.313 141.719 235.911 142.114 236.527 142.528C236.306 142.557 236.084 142.586 235.891 142.624C235.41 142.306 234.937 141.998 234.494 141.728C234.378 141.641 225.002 134.655 159.541 135.734L159.059 135.754L159.021 135.493L158.597 135.551L158.626 135.773L89.7726 138.471H89.6184C88.7126 138.471 84.1641 138.644 80.5504 142.104C79.9144 142.711 79.394 143.492 78.9797 144.369L78.9893 144.378Z" fill="#D45027"/>
<path d="M172.668 243.157C172.668 243.215 173.15 249.055 172.909 252.206C172.668 255.289 171.733 263.779 171.695 264.117L171.29 264.097H171.261C171.271 264.011 172.234 255.299 172.485 252.177C172.726 249.064 172.244 243.263 172.244 243.205C172.244 243.205 168.833 198.145 168.592 194.984C168.389 192.344 165.768 183.623 164.949 180.963L165.412 180.982C166.26 183.777 168.823 192.267 169.025 194.946C169.266 198.106 172.678 243.167 172.678 243.167L172.668 243.157Z" fill="#D45027"/>
<path d="M159.356 141.084L158.633 135.774L159.066 135.765L159.808 141.074L159.356 141.084Z" fill="#D45027"/>
<path d="M159.076 135.765L158.642 135.775L158.613 135.563L159.037 135.505L159.076 135.765Z" fill="#88171A"/>
<path d="M171.698 264.14L171.293 264.092H171.698V264.13V264.14Z" fill="#88171A"/>
<path d="M58.1552 144.259L58.0877 144.336C57.9335 144.287 57.7794 144.239 57.6444 144.181L57.7986 144.008L58.3479 141.618L65.7006 134.998C66.2209 134.285 74.4698 125.872 74.8264 125.506L75.1347 125.805C75.0384 125.901 66.5486 134.564 66.0186 135.287L58.7334 141.849L58.1455 144.249L58.1552 144.259Z" fill="#D45027"/>
<path d="M32.4311 172.298L32.778 171.913L33.4622 171.797L32.7684 172.568C32.6527 172.741 29.4052 177.184 25.5506 178.475L17.5137 181.221L17.3788 180.817L25.4157 178.07C29.145 176.827 32.4022 172.346 32.4311 172.308V172.298Z" fill="#D45027"/>
<path d="M277.349 179.304C270.411 172.482 247.591 150.366 235.902 142.628C236.095 142.599 236.317 142.56 236.538 142.531C248.362 150.501 270.786 172.241 277.657 179.006C278.554 179.892 279.228 180.933 279.671 182.118L281.56 187.158H281.098L279.257 182.272C278.833 181.154 278.197 180.162 277.339 179.324L277.349 179.304Z" fill="#161A1F"/>
<path d="M78.8382 144.654L74.521 154.705H74.0585L78.4528 144.48C78.4528 144.48 78.4817 144.442 78.4913 144.413C78.6648 144.403 78.8286 144.393 78.9924 144.384C78.9442 144.48 78.8768 144.557 78.8382 144.654Z" fill="#161A1F"/>
<path d="M164.694 180.162L159.355 141.086H159.799L160.242 144.266L165.118 180.066C165.147 180.133 165.253 180.47 165.398 180.972L164.935 180.952C164.79 180.48 164.694 180.162 164.694 180.162Z" fill="#161A1F"/>
<path d="M57.6317 144.189C57.757 144.238 57.9208 144.286 58.075 144.344L33.4537 171.798L32.7694 171.914L57.6317 144.189Z" fill="#161A1F"/>
<path d="M40.613 188.451C42.8969 187.43 44.5929 185.194 45.3157 184.105C45.5759 183.71 45.5855 183.218 45.3446 182.804C44.9013 182.033 43.9858 180.79 42.4151 179.846C39.9771 178.381 35.843 178.506 35.843 178.506C29.7334 178.15 22.9204 178.959 19.6536 179.422C18.4008 179.605 17.283 180.25 16.4832 181.233C15.4713 182.496 13.9488 184.404 12.3395 186.427C9.54486 189.954 8.57157 195.071 8.57157 195.071L6.99119 203.841L6.625 207.609C8.69685 209.517 12.166 209.969 14.3246 210.056C15.481 210.104 16.5699 209.555 17.2059 208.591C19.3452 205.392 24.4429 197.76 26.3413 194.821C28.7794 191.043 32.7978 190.311 32.7978 190.311L39.8036 188.702C40.083 188.634 40.3625 188.557 40.6227 188.441L40.613 188.451Z" fill="#F27771"/>
<path d="M16.8215 186.915L11.2227 200.069L18.4019 202.748C18.4019 202.748 23.8754 193.497 25.7064 191.425C27.5373 189.353 31.0643 188.621 31.0643 188.621L31.9123 187.397L16.8118 186.915H16.8215Z" fill="#88171A"/>
<path d="M310.064 172.807C310.835 172.922 312.232 173.076 313.976 173.288C313.514 174.522 313.109 175.515 312.81 176.093C311.162 179.196 306.412 181.2 299.473 182.665C292.525 184.12 288.333 179.918 288.333 179.918L277.945 171.38L292.256 170.571C295.571 170.378 298.77 169.415 301.613 167.776C303.511 169.231 305.072 170.436 306.151 171.274C307.289 172.151 308.628 172.672 310.064 172.787V172.807Z" fill="#FEE5DA"/>
<path d="M365.507 206.151C372.282 204.435 382.13 206.787 382.94 206.95C392.817 209.957 400.787 215.884 403.774 218.302C404.689 219.044 405.123 220.239 404.873 221.386C404.603 222.639 404.073 223.67 403.562 224.441C402.936 225.385 401.847 225.915 400.71 225.828L391.16 225.077C389.358 224.932 387.652 224.277 386.216 223.188L377.63 216.645C377.63 216.645 369.593 212.077 368.312 211.345C367.598 210.94 366.076 209.61 364.871 208.521C364.052 207.77 364.409 206.44 365.488 206.17L365.507 206.151Z" fill="#FDDBCE"/>
<path d="M375.424 209.274C383.451 207.963 389.31 213.427 389.31 214.612C389.31 215.123 389.079 215.692 388.799 216.193C388.202 217.253 387.826 218.419 387.797 219.633L387.73 221.946C387.701 222.91 386.573 223.411 385.851 222.794C383.875 221.108 380.897 218.429 380.184 217.002C379.433 215.489 376.6 212.608 374.913 210.951C374.345 210.392 374.653 209.418 375.434 209.293L375.424 209.274Z" fill="#F4F6FB"/>
</svg>
